999
300x200x120.dxf
0
SECTION
2
HEADER
9
$ACADVER
1
AC1021
9
$HANDSEED
5
bb
9
$INSUNITS
70
5
0
ENDSEC
0
SECTION
2
CLASSES
0
ENDSEC
0
SECTION
2
TABLES
0
TABLE
2
VPORT
5
2
100
AcDbSymbolTable
70
1
0
VPORT
5
1
100
AcDbSymbolTableRecord
100
AcDbViewportTableRecord
2
*ACTIVE
10
0
20
0
11
1
21
1
12
500.0
22
500.0
40
1000.0
70
0
0
ENDTAB
0
TABLE
2
LTYPE
5
3
100
AcDbSymbolTable
70
3
0
LTYPE
5
b
100
AcDbSymbolTableRecord
100
AcDbLinetypeTableRecord
2
Solid
70
0
72
65
73
0
3

0
LTYPE
5
c
100
AcDbSymbolTableRecord
100
AcDbLinetypeTableRecord
2
ByBlock
70
0
72
65
73
0
3

0
LTYPE
5
d
100
AcDbSymbolTableRecord
100
AcDbLinetypeTableRecord
2
ByLayer
70
0
72
65
73
0
3

0
ENDTAB
0
TABLE
2
LAYER
5
4
100
AcDbSymbolTable
70
7
0
LAYER
5
e
100
AcDbSymbolTableRecord
100
AcDbLayerTableRecord
2
0
6
Solid
370
35
62
0
70
0
390
0
0
LAYER
5
19
100
AcDbSymbolTableRecord
100
AcDbLayerTableRecord
2
cuttingLine
6
Solid
370
35
62
0
70
0
390
0
0
LAYER
5
31
100
AcDbSymbolTableRecord
100
AcDbLayerTableRecord
2
foldingLine
6
Solid
370
35
62
5
70
0
390
0
0
LAYER
5
4f
100
AcDbSymbolTableRecord
100
AcDbLayerTableRecord
2
foldingLine
6
Solid
370
35
62
5
70
0
390
0
0
LAYER
5
af
100
AcDbSymbolTableRecord
100
AcDbLayerTableRecord
2
foldingLine
6
Solid
370
35
62
1
70
0
390
0
0
LAYER
5
b3
100
AcDbSymbolTableRecord
100
AcDbLayerTableRecord
2
foldingLine
6
Solid
370
35
62
1
70
0
390
0
0
LAYER
5
b7
100
AcDbSymbolTableRecord
100
AcDbLayerTableRecord
2
foldingLine
6
Solid
370
35
62
1
70
0
390
0
0
ENDTAB
0
TABLE
2
STYLE
5
5
100
AcDbSymbolTable
70
0
0
ENDTAB
0
TABLE
2
VIEW
5
6
100
AcDbSymbolTable
70
0
0
ENDTAB
0
TABLE
2
UCS
5
7
100
AcDbSymbolTable
70
0
0
ENDTAB
0
TABLE
2
APPID
5
8
100
AcDbSymbolTable
70
1
0
APPID
5
10
100
AcDbSymbolTableRecord
100
AcDbRegAppTableRecord
2
ACAD
70
0
0
ENDTAB
0
TABLE
2
DIMSTYLE
5
9
100
AcDbSymbolTable
70
0
100
AcDbDimStyleTable
71
1
0
ENDTAB
0
TABLE
2
BLOCK_RECORD
5
a
100
AcDbSymbolTable
70
2
0
BLOCK_RECORD
5
13
100
AcDbSymbolTableRecord
100
AcDbBlockTableRecord
2
*Model_Space
70
0
280
1
281
0
0
BLOCK_RECORD
5
16
100
AcDbSymbolTableRecord
100
AcDbBlockTableRecord
2
*Paper_Space
70
0
280
1
281
0
0
ENDTAB
0
ENDSEC
0
SECTION
2
BLOCKS
0
BLOCK
5
11
100
AcDbEntity
8
0
100
AcDbBlockBegin
2
*Model_Space
70
0
10
0
20
0
30
0
3
*Model_Space
1

0
ENDBLK
5
12
100
AcDbEntity
8
0
100
AcDbBlockEnd
0
BLOCK
5
14
100
AcDbEntity
8
0
100
AcDbBlockBegin
2
*Paper_Space
70
0
10
0
20
0
30
0
3
*Paper_Space
1

0
ENDBLK
5
15
100
AcDbEntity
8
0
100
AcDbBlockEnd
0
ENDSEC
0
SECTION
2
ENTITIES
0
LINE
5
1b
100
AcDbEntity
8
cuttingLine
6
Solid
370
35
62
5
100
AcDbLine
10
0.13225
20
0.75
30
0.0
11
0.0
21
0.0
31
0.0
0
LINE
5
1d
100
AcDbEntity
8
cuttingLine
6
Solid
370
35
62
5
100
AcDbLine
10
0.0
20
0.0
30
0.0
11
-0.75
21
-0.13225
31
0.0
0
LINE
5
21
100
AcDbEntity
8
cuttingLine
6
Solid
370
35
62
5
100
AcDbLine
10
299.86775
20
0.75
30
0.0
11
300.0
21
0.0
31
0.0
0
LINE
5
23
100
AcDbEntity
8
cuttingLine
6
Solid
370
35
62
5
100
AcDbLine
10
300.0
20
0.0
30
0.0
11
300.75
21
-0.13225
31
0.0
0
LINE
5
27
100
AcDbEntity
8
cuttingLine
6
Solid
370
35
62
5
100
AcDbLine
10
0.13225
20
-200.75
30
0.0
11
0.0
21
-200.0
31
0.0
0
LINE
5
29
100
AcDbEntity
8
cuttingLine
6
Solid
370
35
62
5
100
AcDbLine
10
0.0
20
-200.0
30
0.0
11
-0.75
21
-199.86775
31
0.0
0
LINE
5
2d
100
AcDbEntity
8
cuttingLine
6
Solid
370
35
62
5
100
AcDbLine
10
299.86775
20
-200.75
30
0.0
11
300.0
21
-200.0
31
0.0
0
LINE
5
2f
100
AcDbEntity
8
cuttingLine
6
Solid
370
35
62
5
100
AcDbLine
10
300.0
20
-200.0
30
0.0
11
300.75
21
-199.86775
31
0.0
0
LINE
5
33
100
AcDbEntity
8
foldingLine
6
Solid
370
35
62
1
100
AcDbLine
10
75.0
20
-25.0
30
0.0
11
225.0
21
-25.0
31
0.0
0
LINE
5
37
100
AcDbEntity
8
foldingLine
6
Solid
370
35
62
1
100
AcDbLine
10
225.0
20
-25.0
30
0.0
11
225.0
21
-175.0
31
0.0
0
LINE
5
3b
100
AcDbEntity
8
foldingLine
6
Solid
370
35
62
1
100
AcDbLine
10
225.0
20
-175.0
30
0.0
11
75.0
21
-175.0
31
0.0
0
LINE
5
3f
100
AcDbEntity
8
foldingLine
6
Solid
370
35
62
1
100
AcDbLine
10
75.0
20
-175.0
30
0.0
11
75.0
21
-25.0
31
0.0
0
LWPOLYLINE
5
45
100
AcDbEntity
8
cuttingLine
6
Solid
370
35
62
5
100
AcDbPolyline
90
4
70
1
10
100.0
20
-50.0
30
0.0
10
200.0
20
-50.0
30
0.0
10
200.0
20
-150.0
30
0.0
10
100.0
20
-150.0
30
0.0
0
LINE
5
47
100
AcDbEntity
8
cuttingLine
6
Solid
370
35
62
5
100
AcDbLine
10
100.0
20
-50.0
30
0.0
11
75.0
21
-25.0
31
0.0
0
LINE
5
49
100
AcDbEntity
8
cuttingLine
6
Solid
370
35
62
5
100
AcDbLine
10
200.0
20
-50.0
30
0.0
11
225.0
21
-25.0
31
0.0
0
LINE
5
4b
100
AcDbEntity
8
cuttingLine
6
Solid
370
35
62
5
100
AcDbLine
10
200.0
20
-150.0
30
0.0
11
225.0
21
-175.0
31
0.0
0
LINE
5
4d
100
AcDbEntity
8
cuttingLine
6
Solid
370
35
62
5
100
AcDbLine
10
100.0
20
-150.0
30
0.0
11
75.0
21
-175.0
31
0.0
0
LINE
5
51
100
AcDbEntity
8
foldingLine
6
Solid
370
35
62
1
100
AcDbLine
10
0.13225
20
-200.75
30
0.0
11
299.86775
21
-200.75
31
0.0
0
ARC
5
55
100
AcDbEntity
8
cuttingLine
6
Solid
370
35
62
5
100
AcDbCircle
10
28.40102
20
-315.0
30
0.0
40
8.0
100
AcDbArc
50
190.0
51
-90.0
0
ARC
5
59
100
AcDbEntity
8
cuttingLine
6
Solid
370
35
62
5
100
AcDbCircle
10
271.59898
20
-315.0
30
0.0
40
8.0
100
AcDbArc
50
269.99998
51
-10.00002
0
LINE
5
5d
100
AcDbEntity
8
cuttingLine
6
Solid
370
35
62
5
100
AcDbLine
10
0.13225
20
-200.75
30
0.0
11
20.52255
21
-316.38919
31
0.0
0
LINE
5
61
100
AcDbEntity
8
cuttingLine
6
Solid
370
35
62
5
100
AcDbLine
10
28.40102
20
-323.0
30
0.0
11
271.59898
21
-323.0
31
0.0
0
LINE
5
65
100
AcDbEntity
8
cuttingLine
6
Solid
370
35
62
5
100
AcDbLine
10
299.86775
20
-200.75
30
0.0
11
279.47745
21
-316.38919
31
0.0
0
LINE
5
69
100
AcDbEntity
8
foldingLine
6
Solid
370
35
62
1
100
AcDbLine
10
-0.75
20
-0.13225
30
0.0
11
-0.75
21
-199.86775
31
0.0
0
ARC
5
6d
100
AcDbEntity
8
cuttingLine
6
Solid
370
35
62
5
100
AcDbCircle
10
-115.0
20
-28.40102
30
0.0
40
8.0
100
AcDbArc
50
100.0
51
180.0
0
ARC
5
71
100
AcDbEntity
8
cuttingLine
6
Solid
370
35
62
5
100
AcDbCircle
10
-115.0
20
-171.59898
30
0.0
40
8.0
100
AcDbArc
50
179.99996
51
259.99997
0
LINE
5
75
100
AcDbEntity
8
cuttingLine
6
Solid
370
35
62
5
100
AcDbLine
10
-0.75
20
-0.13225
30
0.0
11
-116.38919
21
-20.52255
31
0.0
0
LINE
5
79
100
AcDbEntity
8
cuttingLine
6
Solid
370
35
62
5
100
AcDbLine
10
-123.0
20
-28.40102
30
0.0
11
-123.0
21
-171.59898
31
0.0
0
LINE
5
7d
100
AcDbEntity
8
cuttingLine
6
Solid
370
35
62
5
100
AcDbLine
10
-0.75
20
-199.86775
30
0.0
11
-116.38919
21
-179.47745
31
0.0
0
LINE
5
81
100
AcDbEntity
8
foldingLine
6
Solid
370
35
62
1
100
AcDbLine
10
300.75
20
-0.13225
30
0.0
11
300.75
21
-199.86775
31
0.0
0
ARC
5
85
100
AcDbEntity
8
cuttingLine
6
Solid
370
35
62
5
100
AcDbCircle
10
415.0
20
-28.40102
30
0.0
40
8.0
100
AcDbArc
50
0.0
51
80.0
0
ARC
5
89
100
AcDbEntity
8
cuttingLine
6
Solid
370
35
62
5
100
AcDbCircle
10
415.0
20
-171.59898
30
0.0
40
8.0
100
AcDbArc
50
-79.99997
51
4.0E-5
0
LINE
5
8d
100
AcDbEntity
8
cuttingLine
6
Solid
370
35
62
5
100
AcDbLine
10
300.75
20
-0.13225
30
0.0
11
416.38919
21
-20.52255
31
0.0
0
LINE
5
91
100
AcDbEntity
8
cuttingLine
6
Solid
370
35
62
5
100
AcDbLine
10
423.0
20
-28.40102
30
0.0
11
423.0
21
-171.59898
31
0.0
0
LINE
5
95
100
AcDbEntity
8
cuttingLine
6
Solid
370
35
62
5
100
AcDbLine
10
300.75
20
-199.86775
30
0.0
11
416.38919
21
-179.47745
31
0.0
0
LINE
5
99
100
AcDbEntity
8
cuttingLine
6
Solid
370
35
62
5
100
AcDbLine
10
0.13225
20
0.75
30
0.0
11
21.55597
21
122.25
31
0.0
0
LINE
5
9b
100
AcDbEntity
8
cuttingLine
6
Solid
370
35
62
5
100
AcDbLine
10
21.55597
20
122.25
30
0.0
11
21.55597
21
217.25
31
0.0
0
LINE
5
9d
100
AcDbEntity
8
cuttingLine
6
Solid
370
35
62
5
100
AcDbLine
10
21.55597
20
217.25
30
0.0
11
21.55597
21
414.25
31
0.0
0
LINE
5
9f
100
AcDbEntity
8
cuttingLine
6
Solid
370
35
62
5
100
AcDbLine
10
21.55597
20
414.25
30
0.0
11
21.55597
21
510.0
31
0.0
0
LINE
5
a1
100
AcDbEntity
8
cuttingLine
6
Solid
370
35
62
5
100
AcDbLine
10
21.55597
20
510.0
30
0.0
11
278.44403
21
510.0
31
0.0
0
LINE
5
a3
100
AcDbEntity
8
cuttingLine
6
Solid
370
35
62
5
100
AcDbLine
10
278.44403
20
510.0
30
0.0
11
278.44403
21
414.25
31
0.0
0
LINE
5
a5
100
AcDbEntity
8
cuttingLine
6
Solid
370
35
62
5
100
AcDbLine
10
278.44403
20
414.25
30
0.0
11
278.44403
21
217.25
31
0.0
0
LINE
5
a7
100
AcDbEntity
8
cuttingLine
6
Solid
370
35
62
5
100
AcDbLine
10
278.44403
20
217.25
30
0.0
11
278.44403
21
122.25
31
0.0
0
LINE
5
a9
100
AcDbEntity
8
cuttingLine
6
Solid
370
35
62
5
100
AcDbLine
10
278.44403
20
122.25
30
0.0
11
299.86775
21
0.75
31
0.0
0
LINE
5
ad
100
AcDbEntity
8
foldingLine
6
Solid
370
35
62
1
100
AcDbLine
10
0.13225
20
0.75
30
0.0
11
299.86775
21
0.75
31
0.0
0
LINE
5
b1
100
AcDbEntity
8
foldingLine
6
Solid
370
35
62
1
100
AcDbLine
10
21.55597
20
414.25
30
0.0
11
278.44403
21
414.25
31
0.0
0
LINE
5
b5
100
AcDbEntity
8
foldingLine
6
Solid
370
35
62
1
100
AcDbLine
10
21.55597
20
122.25
30
0.0
11
278.44403
21
122.25
31
0.0
0
LINE
5
b9
100
AcDbEntity
8
foldingLine
6
Solid
370
35
62
1
100
AcDbLine
10
21.55597
20
217.25
30
0.0
11
278.44403
21
217.25
31
0.0
0
ENDSEC
0
SECTION
2
OBJECTS
0
DICTIONARY
5
17
330
0
100
AcDbDictionary
281
1
3
ACAD_GROUP
350
18
0
DICTIONARY
5
18
330
17
100
AcDbDictionary
281
1
0
ENDSEC
0
EOF
