999
300x250x80.dxf
0
SECTION
2
HEADER
9
$ACADVER
1
AC1021
9
$HANDSEED
5
1b1
9
$INSUNITS
70
5
0
ENDSEC
0
SECTION
2
CLASSES
0
ENDSEC
0
SECTION
2
TABLES
0
TABLE
2
VPORT
5
2
100
AcDbSymbolTable
70
1
0
VPORT
5
1
100
AcDbSymbolTableRecord
100
AcDbViewportTableRecord
2
*ACTIVE
10
0
20
0
11
1
21
1
12
500.0
22
500.0
40
1000.0
70
0
0
ENDTAB
0
TABLE
2
LTYPE
5
3
100
AcDbSymbolTable
70
3
0
LTYPE
5
b
100
AcDbSymbolTableRecord
100
AcDbLinetypeTableRecord
2
Solid
70
0
72
65
73
0
3

0
LTYPE
5
c
100
AcDbSymbolTableRecord
100
AcDbLinetypeTableRecord
2
ByBlock
70
0
72
65
73
0
3

0
LTYPE
5
d
100
AcDbSymbolTableRecord
100
AcDbLinetypeTableRecord
2
ByLayer
70
0
72
65
73
0
3

0
ENDTAB
0
TABLE
2
LAYER
5
4
100
AcDbSymbolTable
70
11
0
LAYER
5
e
100
AcDbSymbolTableRecord
100
AcDbLayerTableRecord
2
0
6
Solid
370
35
62
0
70
0
390
0
0
LAYER
5
19
100
AcDbSymbolTableRecord
100
AcDbLayerTableRecord
2
foldingLine
6
Solid
370
35
62
0
70
0
390
0
0
LAYER
5
29
100
AcDbSymbolTableRecord
100
AcDbLayerTableRecord
2
cuttingLine
6
Solid
370
35
62
1
70
0
390
0
0
LAYER
5
59
100
AcDbSymbolTableRecord
100
AcDbLayerTableRecord
2
foldingLine
6
Solid
370
35
62
1
70
0
390
0
0
LAYER
5
99
100
AcDbSymbolTableRecord
100
AcDbLayerTableRecord
2
foldingLine
6
Solid
370
35
62
5
70
0
390
0
0
LAYER
5
9d
100
AcDbSymbolTableRecord
100
AcDbLayerTableRecord
2
foldingLine
6
Solid
370
35
62
1
70
0
390
0
0
LAYER
5
f1
100
AcDbSymbolTableRecord
100
AcDbLayerTableRecord
2
foldingLine
6
Solid
370
35
62
5
70
0
390
0
0
LAYER
5
fd
100
AcDbSymbolTableRecord
100
AcDbLayerTableRecord
2
foldingLine
6
Solid
370
35
62
5
70
0
390
0
0
LAYER
5
175
100
AcDbSymbolTableRecord
100
AcDbLayerTableRecord
2
foldingLine
6
Solid
370
35
62
5
70
0
390
0
0
LAYER
5
18d
100
AcDbSymbolTableRecord
100
AcDbLayerTableRecord
2
foldingLine
6
Solid
370
35
62
5
70
0
390
0
0
LAYER
5
191
100
AcDbSymbolTableRecord
100
AcDbLayerTableRecord
2
foldingLine
6
Solid
370
35
62
1
70
0
390
0
0
ENDTAB
0
TABLE
2
STYLE
5
5
100
AcDbSymbolTable
70
0
0
ENDTAB
0
TABLE
2
VIEW
5
6
100
AcDbSymbolTable
70
0
0
ENDTAB
0
TABLE
2
UCS
5
7
100
AcDbSymbolTable
70
0
0
ENDTAB
0
TABLE
2
APPID
5
8
100
AcDbSymbolTable
70
1
0
APPID
5
10
100
AcDbSymbolTableRecord
100
AcDbRegAppTableRecord
2
ACAD
70
0
0
ENDTAB
0
TABLE
2
DIMSTYLE
5
9
100
AcDbSymbolTable
70
0
100
AcDbDimStyleTable
71
1
0
ENDTAB
0
TABLE
2
BLOCK_RECORD
5
a
100
AcDbSymbolTable
70
2
0
BLOCK_RECORD
5
13
100
AcDbSymbolTableRecord
100
AcDbBlockTableRecord
2
*Model_Space
70
0
280
1
281
0
0
BLOCK_RECORD
5
16
100
AcDbSymbolTableRecord
100
AcDbBlockTableRecord
2
*Paper_Space
70
0
280
1
281
0
0
ENDTAB
0
ENDSEC
0
SECTION
2
BLOCKS
0
BLOCK
5
11
100
AcDbEntity
8
0
100
AcDbBlockBegin
2
*Model_Space
70
0
10
0
20
0
30
0
3
*Model_Space
1

0
ENDBLK
5
12
100
AcDbEntity
8
0
100
AcDbBlockEnd
0
BLOCK
5
14
100
AcDbEntity
8
0
100
AcDbBlockBegin
2
*Paper_Space
70
0
10
0
20
0
30
0
3
*Paper_Space
1

0
ENDBLK
5
15
100
AcDbEntity
8
0
100
AcDbBlockEnd
0
ENDSEC
0
SECTION
2
ENTITIES
0
LINE
5
1b
100
AcDbEntity
8
foldingLine
6
Solid
370
35
62
1
100
AcDbLine
10
0.0
20
0.0
30
0.0
11
0.0
21
36.14286
31
0.0
0
LINE
5
1f
100
AcDbEntity
8
foldingLine
6
Solid
370
35
62
1
100
AcDbLine
10
315.0
20
0.0
30
0.0
11
315.0
21
36.14286
31
0.0
0
LINE
5
23
100
AcDbEntity
8
foldingLine
6
Solid
370
35
62
1
100
AcDbLine
10
0.0
20
0.0
30
0.0
11
0.0
21
36.14286
31
0.0
0
LINE
5
27
100
AcDbEntity
8
foldingLine
6
Solid
370
35
62
1
100
AcDbLine
10
315.0
20
0.0
30
0.0
11
315.0
21
36.14286
31
0.0
0
LWPOLYLINE
5
2b
100
AcDbEntity
8
cuttingLine
6
Solid
370
35
62
5
100
AcDbPolyline
90
5
70
1
10
0.0
20
36.14286
30
0.0
10
0.0
20
72.28571
30
0.0
10
5.25
20
72.28571
30
0.0
10
5.25
20
36.14286
30
0.0
10
0.0
20
36.14286
30
0.0
0
LWPOLYLINE
5
2f
100
AcDbEntity
8
cuttingLine
6
Solid
370
35
62
5
100
AcDbPolyline
90
5
70
1
10
315.0
20
36.14286
30
0.0
10
315.0
20
72.28571
30
0.0
10
309.75
20
72.28571
30
0.0
10
309.75
20
36.14286
30
0.0
10
315.0
20
36.14286
30
0.0
0
LINE
5
33
100
AcDbEntity
8
foldingLine
6
Solid
370
35
62
1
100
AcDbLine
10
0.0
20
72.28571
30
0.0
11
0.0
21
108.42857
31
0.0
0
LINE
5
37
100
AcDbEntity
8
foldingLine
6
Solid
370
35
62
1
100
AcDbLine
10
315.0
20
72.28571
30
0.0
11
315.0
21
108.42857
31
0.0
0
LWPOLYLINE
5
3b
100
AcDbEntity
8
cuttingLine
6
Solid
370
35
62
5
100
AcDbPolyline
90
5
70
1
10
0.0
20
108.42857
30
0.0
10
0.0
20
144.57143
30
0.0
10
5.25
20
144.57143
30
0.0
10
5.25
20
108.42857
30
0.0
10
0.0
20
108.42857
30
0.0
0
LWPOLYLINE
5
3f
100
AcDbEntity
8
cuttingLine
6
Solid
370
35
62
5
100
AcDbPolyline
90
5
70
1
10
315.0
20
108.42857
30
0.0
10
315.0
20
144.57143
30
0.0
10
309.75
20
144.57143
30
0.0
10
309.75
20
108.42857
30
0.0
10
315.0
20
108.42857
30
0.0
0
LINE
5
43
100
AcDbEntity
8
foldingLine
6
Solid
370
35
62
1
100
AcDbLine
10
0.0
20
144.57143
30
0.0
11
0.0
21
180.71429
31
0.0
0
LINE
5
47
100
AcDbEntity
8
foldingLine
6
Solid
370
35
62
1
100
AcDbLine
10
315.0
20
144.57143
30
0.0
11
315.0
21
180.71429
31
0.0
0
LWPOLYLINE
5
4b
100
AcDbEntity
8
cuttingLine
6
Solid
370
35
62
5
100
AcDbPolyline
90
5
70
1
10
0.0
20
180.71429
30
0.0
10
0.0
20
216.85714
30
0.0
10
5.25
20
216.85714
30
0.0
10
5.25
20
180.71429
30
0.0
10
0.0
20
180.71429
30
0.0
0
LWPOLYLINE
5
4f
100
AcDbEntity
8
cuttingLine
6
Solid
370
35
62
5
100
AcDbPolyline
90
5
70
1
10
315.0
20
180.71429
30
0.0
10
315.0
20
216.85714
30
0.0
10
309.75
20
216.85714
30
0.0
10
309.75
20
180.71429
30
0.0
10
315.0
20
180.71429
30
0.0
0
LINE
5
53
100
AcDbEntity
8
foldingLine
6
Solid
370
35
62
1
100
AcDbLine
10
0.0
20
216.85714
30
0.0
11
0.0
21
253.0
31
0.0
0
LINE
5
57
100
AcDbEntity
8
foldingLine
6
Solid
370
35
62
1
100
AcDbLine
10
315.0
20
216.85714
30
0.0
11
315.0
21
253.0
31
0.0
0
LINE
5
5b
100
AcDbEntity
8
foldingLine
6
Solid
370
35
62
1
100
AcDbLine
10
3.0
20
0.75
30
0.0
11
312.0
21
0.75
31
0.0
0
LINE
5
5f
100
AcDbEntity
8
foldingLine
6
Solid
370
35
62
1
100
AcDbLine
10
1.5
20
252.25
30
0.0
11
313.5
21
252.25
31
0.0
0
LINE
5
63
100
AcDbEntity
8
cuttingLine
6
Solid
370
35
62
5
100
AcDbLine
10
0.0
20
253.0
30
0.0
11
1.5
21
252.25
31
0.0
0
LINE
5
67
100
AcDbEntity
8
cuttingLine
6
Solid
370
35
62
5
100
AcDbLine
10
313.5
20
252.25
30
0.0
11
315.0
21
253.0
31
0.0
0
LINE
5
6b
100
AcDbEntity
8
cuttingLine
6
Solid
370
35
62
5
100
AcDbLine
10
0.0
20
0.0
30
0.0
11
3.0
21
0.75
31
0.0
0
LINE
5
6f
100
AcDbEntity
8
cuttingLine
6
Solid
370
35
62
5
100
AcDbLine
10
315.0
20
0.0
30
0.0
11
312.0
21
0.75
31
0.0
0
LINE
5
73
100
AcDbEntity
8
cuttingLine
6
Solid
370
35
62
5
100
AcDbLine
10
-166.75
20
1.5
30
0.0
11
-166.75
21
36.14286
31
0.0
0
LINE
5
77
100
AcDbEntity
8
cuttingLine
6
Solid
370
35
62
5
100
AcDbLine
10
-166.75
20
36.14286
30
0.0
11
-169.25
21
37.39286
31
0.0
0
LINE
5
79
100
AcDbEntity
8
cuttingLine
6
Solid
370
35
62
5
100
AcDbLine
10
-169.25
20
37.39286
30
0.0
11
-169.25
21
71.03571
31
0.0
0
LINE
5
7b
100
AcDbEntity
8
cuttingLine
6
Solid
370
35
62
5
100
AcDbLine
10
-169.25
20
71.03571
30
0.0
11
-166.75
21
72.28571
31
0.0
0
LINE
5
7f
100
AcDbEntity
8
cuttingLine
6
Solid
370
35
62
5
100
AcDbLine
10
-166.75
20
72.28571
30
0.0
11
-166.75
21
108.42857
31
0.0
0
LINE
5
83
100
AcDbEntity
8
cuttingLine
6
Solid
370
35
62
5
100
AcDbLine
10
-166.75
20
108.42857
30
0.0
11
-169.25
21
109.67857
31
0.0
0
LINE
5
85
100
AcDbEntity
8
cuttingLine
6
Solid
370
35
62
5
100
AcDbLine
10
-169.25
20
109.67857
30
0.0
11
-169.25
21
143.32143
31
0.0
0
LINE
5
87
100
AcDbEntity
8
cuttingLine
6
Solid
370
35
62
5
100
AcDbLine
10
-169.25
20
143.32143
30
0.0
11
-166.75
21
144.57143
31
0.0
0
LINE
5
8b
100
AcDbEntity
8
cuttingLine
6
Solid
370
35
62
5
100
AcDbLine
10
-166.75
20
144.57143
30
0.0
11
-166.75
21
180.71429
31
0.0
0
LINE
5
8f
100
AcDbEntity
8
cuttingLine
6
Solid
370
35
62
5
100
AcDbLine
10
-166.75
20
180.71429
30
0.0
11
-169.25
21
181.96429
31
0.0
0
LINE
5
91
100
AcDbEntity
8
cuttingLine
6
Solid
370
35
62
5
100
AcDbLine
10
-169.25
20
181.96429
30
0.0
11
-169.25
21
215.60714
31
0.0
0
LINE
5
93
100
AcDbEntity
8
cuttingLine
6
Solid
370
35
62
5
100
AcDbLine
10
-169.25
20
215.60714
30
0.0
11
-166.75
21
216.85714
31
0.0
0
LINE
5
97
100
AcDbEntity
8
cuttingLine
6
Solid
370
35
62
5
100
AcDbLine
10
-166.75
20
216.85714
30
0.0
11
-166.75
21
251.5
31
0.0
0
LINE
5
9b
100
AcDbEntity
8
foldingLine
6
Solid
370
35
62
1
100
AcDbLine
10
-81.5
20
0.0
30
0.0
11
-81.5
21
253.0
31
0.0
0
LINE
5
9f
100
AcDbEntity
8
foldingLine
6
Solid
370
35
62
1
100
AcDbLine
10
-86.0
20
1.5
30
0.0
11
-86.0
21
251.5
31
0.0
0
LINE
5
a3
100
AcDbEntity
8
cuttingLine
6
Solid
370
35
62
5
100
AcDbLine
10
0.0
20
0.0
30
0.0
11
-81.5
21
0.0
31
0.0
0
LINE
5
a5
100
AcDbEntity
8
cuttingLine
6
Solid
370
35
62
5
100
AcDbLine
10
-81.5
20
0.0
30
0.0
11
-86.0
21
1.5
31
0.0
0
LINE
5
a7
100
AcDbEntity
8
cuttingLine
6
Solid
370
35
62
5
100
AcDbLine
10
-86.0
20
1.5
30
0.0
11
-166.75
21
1.5
31
0.0
0
LINE
5
ab
100
AcDbEntity
8
cuttingLine
6
Solid
370
35
62
5
100
AcDbLine
10
0.0
20
253.0
30
0.0
11
-81.5
21
253.0
31
0.0
0
LINE
5
ad
100
AcDbEntity
8
cuttingLine
6
Solid
370
35
62
5
100
AcDbLine
10
-81.5
20
253.0
30
0.0
11
-86.0
21
251.5
31
0.0
0
LINE
5
af
100
AcDbEntity
8
cuttingLine
6
Solid
370
35
62
5
100
AcDbLine
10
-86.0
20
251.5
30
0.0
11
-166.75
21
251.5
31
0.0
0
LINE
5
b3
100
AcDbEntity
8
cuttingLine
6
Solid
370
35
62
5
100
AcDbLine
10
481.75
20
1.5
30
0.0
11
481.75
21
36.14286
31
0.0
0
LINE
5
b7
100
AcDbEntity
8
cuttingLine
6
Solid
370
35
62
5
100
AcDbLine
10
481.75
20
36.14286
30
0.0
11
484.25
21
37.39286
31
0.0
0
LINE
5
b9
100
AcDbEntity
8
cuttingLine
6
Solid
370
35
62
5
100
AcDbLine
10
484.25
20
37.39286
30
0.0
11
484.25
21
71.03571
31
0.0
0
LINE
5
bb
100
AcDbEntity
8
cuttingLine
6
Solid
370
35
62
5
100
AcDbLine
10
484.25
20
71.03571
30
0.0
11
481.75
21
72.28571
31
0.0
0
LINE
5
bf
100
AcDbEntity
8
cuttingLine
6
Solid
370
35
62
5
100
AcDbLine
10
481.75
20
72.28571
30
0.0
11
481.75
21
108.42857
31
0.0
0
LINE
5
c3
100
AcDbEntity
8
cuttingLine
6
Solid
370
35
62
5
100
AcDbLine
10
481.75
20
108.42857
30
0.0
11
484.25
21
109.67857
31
0.0
0
LINE
5
c5
100
AcDbEntity
8
cuttingLine
6
Solid
370
35
62
5
100
AcDbLine
10
484.25
20
109.67857
30
0.0
11
484.25
21
143.32143
31
0.0
0
LINE
5
c7
100
AcDbEntity
8
cuttingLine
6
Solid
370
35
62
5
100
AcDbLine
10
484.25
20
143.32143
30
0.0
11
481.75
21
144.57143
31
0.0
0
LINE
5
cb
100
AcDbEntity
8
cuttingLine
6
Solid
370
35
62
5
100
AcDbLine
10
481.75
20
144.57143
30
0.0
11
481.75
21
180.71429
31
0.0
0
LINE
5
cf
100
AcDbEntity
8
cuttingLine
6
Solid
370
35
62
5
100
AcDbLine
10
481.75
20
180.71429
30
0.0
11
484.25
21
181.96429
31
0.0
0
LINE
5
d1
100
AcDbEntity
8
cuttingLine
6
Solid
370
35
62
5
100
AcDbLine
10
484.25
20
181.96429
30
0.0
11
484.25
21
215.60714
31
0.0
0
LINE
5
d3
100
AcDbEntity
8
cuttingLine
6
Solid
370
35
62
5
100
AcDbLine
10
484.25
20
215.60714
30
0.0
11
481.75
21
216.85714
31
0.0
0
LINE
5
d7
100
AcDbEntity
8
cuttingLine
6
Solid
370
35
62
5
100
AcDbLine
10
481.75
20
216.85714
30
0.0
11
481.75
21
251.5
31
0.0
0
LINE
5
db
100
AcDbEntity
8
foldingLine
6
Solid
370
35
62
1
100
AcDbLine
10
396.5
20
0.0
30
0.0
11
396.5
21
253.0
31
0.0
0
LINE
5
df
100
AcDbEntity
8
foldingLine
6
Solid
370
35
62
1
100
AcDbLine
10
401.0
20
1.5
30
0.0
11
401.0
21
251.5
31
0.0
0
LINE
5
e3
100
AcDbEntity
8
cuttingLine
6
Solid
370
35
62
5
100
AcDbLine
10
315.0
20
0.0
30
0.0
11
396.5
21
0.0
31
0.0
0
LINE
5
e5
100
AcDbEntity
8
cuttingLine
6
Solid
370
35
62
5
100
AcDbLine
10
396.5
20
0.0
30
0.0
11
401.0
21
1.5
31
0.0
0
LINE
5
e7
100
AcDbEntity
8
cuttingLine
6
Solid
370
35
62
5
100
AcDbLine
10
401.0
20
1.5
30
0.0
11
481.75
21
1.5
31
0.0
0
LINE
5
eb
100
AcDbEntity
8
cuttingLine
6
Solid
370
35
62
5
100
AcDbLine
10
315.0
20
253.0
30
0.0
11
396.5
21
253.0
31
0.0
0
LINE
5
ed
100
AcDbEntity
8
cuttingLine
6
Solid
370
35
62
5
100
AcDbLine
10
396.5
20
253.0
30
0.0
11
401.0
21
251.5
31
0.0
0
LINE
5
ef
100
AcDbEntity
8
cuttingLine
6
Solid
370
35
62
5
100
AcDbLine
10
401.0
20
251.5
30
0.0
11
481.75
21
251.5
31
0.0
0
LINE
5
f3
100
AcDbEntity
8
foldingLine
6
Solid
370
35
62
1
100
AcDbLine
10
3.0
20
0.75
30
0.0
11
3.0
21
-80.0
31
0.0
0
LINE
5
f7
100
AcDbEntity
8
foldingLine
6
Solid
370
35
62
1
100
AcDbLine
10
312.0
20
0.75
30
0.0
11
312.0
21
-80.0
31
0.0
0
LINE
5
fb
100
AcDbEntity
8
cuttingLine
6
Solid
370
35
62
5
100
AcDbLine
10
3.0
20
-80.0
30
0.0
11
312.0
21
-80.0
31
0.0
0
LINE
5
ff
100
AcDbEntity
8
foldingLine
6
Solid
370
35
62
1
100
AcDbLine
10
6.75
20
333.75
30
0.0
11
308.25
21
333.75
31
0.0
0
LINE
5
103
100
AcDbEntity
8
foldingLine
6
Solid
370
35
62
1
100
AcDbLine
10
1.5
20
252.25
30
0.0
11
1.5
21
333.0
31
0.0
0
LINE
5
107
100
AcDbEntity
8
foldingLine
6
Solid
370
35
62
1
100
AcDbLine
10
313.5
20
252.25
30
0.0
11
313.5
21
333.0
31
0.0
0
LINE
5
10b
100
AcDbEntity
8
cuttingLine
6
Solid
370
35
62
5
100
AcDbLine
10
6.75
20
333.75
30
0.0
11
1.5
21
333.0
31
0.0
0
LINE
5
10f
100
AcDbEntity
8
cuttingLine
6
Solid
370
35
62
5
100
AcDbLine
10
308.25
20
333.75
30
0.0
11
313.5
21
333.0
31
0.0
0
POINT
5
113
100
AcDbEntity
8
cuttingLine
6
Solid
370
35
62
5
100
AcDbPoint
10
1.5
20
252.25
30
0.0
0
POINT
5
117
100
AcDbEntity
8
cuttingLine
6
Solid
370
35
62
5
100
AcDbPoint
10
313.5
20
252.25
30
0.0
0
LINE
5
11b
100
AcDbEntity
8
cuttingLine
6
Solid
370
35
62
5
100
AcDbLine
10
-81.5
20
253.0
30
0.0
11
-81.5
21
254.5
31
0.0
0
LINE
5
11d
100
AcDbEntity
8
cuttingLine
6
Solid
370
35
62
5
100
AcDbLine
10
-81.5
20
254.5
30
0.0
11
-122.75
21
261.03336
31
0.0
0
LINE
5
11f
100
AcDbEntity
8
cuttingLine
6
Solid
370
35
62
5
100
AcDbLine
10
-122.75
20
261.03336
30
0.0
11
-122.75
21
333.0
31
0.0
0
LINE
5
121
100
AcDbEntity
8
cuttingLine
6
Solid
370
35
62
5
100
AcDbLine
10
-122.75
20
333.0
30
0.0
11
1.5
21
333.0
31
0.0
0
LINE
5
125
100
AcDbEntity
8
cuttingLine
6
Solid
370
35
62
5
100
AcDbLine
10
396.5
20
253.0
30
0.0
11
396.5
21
254.5
31
0.0
0
LINE
5
127
100
AcDbEntity
8
cuttingLine
6
Solid
370
35
62
5
100
AcDbLine
10
396.5
20
254.5
30
0.0
11
437.75
21
261.03336
31
0.0
0
LINE
5
129
100
AcDbEntity
8
cuttingLine
6
Solid
370
35
62
5
100
AcDbLine
10
437.75
20
261.03336
30
0.0
11
437.75
21
333.0
31
0.0
0
LINE
5
12b
100
AcDbEntity
8
cuttingLine
6
Solid
370
35
62
5
100
AcDbLine
10
437.75
20
333.0
30
0.0
11
313.5
21
333.0
31
0.0
0
LINE
5
12f
100
AcDbEntity
8
cuttingLine
6
Solid
370
35
62
5
100
AcDbLine
10
396.5
20
0.0
30
0.0
11
396.5
21
-1.5
31
0.0
0
LINE
5
131
100
AcDbEntity
8
cuttingLine
6
Solid
370
35
62
5
100
AcDbLine
10
396.5
20
-1.5
30
0.0
11
437.75
21
-8.03336
31
0.0
0
LINE
5
133
100
AcDbEntity
8
cuttingLine
6
Solid
370
35
62
5
100
AcDbLine
10
437.75
20
-8.03336
30
0.0
11
437.75
21
-80.0
31
0.0
0
LINE
5
135
100
AcDbEntity
8
cuttingLine
6
Solid
370
35
62
5
100
AcDbLine
10
437.75
20
-80.0
30
0.0
11
312.0
21
-80.0
31
0.0
0
LINE
5
139
100
AcDbEntity
8
cuttingLine
6
Solid
370
35
62
5
100
AcDbLine
10
-81.5
20
0.0
30
0.0
11
-81.5
21
-1.5
31
0.0
0
LINE
5
13b
100
AcDbEntity
8
cuttingLine
6
Solid
370
35
62
5
100
AcDbLine
10
-81.5
20
-1.5
30
0.0
11
-122.75
21
-8.03336
31
0.0
0
LINE
5
13d
100
AcDbEntity
8
cuttingLine
6
Solid
370
35
62
5
100
AcDbLine
10
-122.75
20
-8.03336
30
0.0
11
-122.75
21
-80.0
31
0.0
0
LINE
5
13f
100
AcDbEntity
8
cuttingLine
6
Solid
370
35
62
5
100
AcDbLine
10
-122.75
20
-80.0
30
0.0
11
3.0
21
-80.0
31
0.0
0
LINE
5
143
100
AcDbEntity
8
cuttingLine
6
Solid
370
35
62
5
100
AcDbLine
10
-74.0
20
536.84791
30
0.0
11
-74.0
21
375.625
31
0.0
0
LINE
5
147
100
AcDbEntity
8
cuttingLine
6
Solid
370
35
62
5
100
AcDbLine
10
6.75
20
335.25
30
0.0
11
-33.625
21
335.25
31
0.0
0
ARC
5
14b
100
AcDbEntity
8
cuttingLine
6
Solid
370
35
62
5
100
AcDbCircle
10
-33.625
20
536.84791
30
0.0
40
40.375
100
AcDbArc
50
99.45165
51
180.0
0
ARC
5
14f
100
AcDbEntity
8
cuttingLine
6
Solid
370
35
62
5
100
AcDbCircle
10
-33.625
20
375.625
30
0.0
40
40.375
100
AcDbArc
50
180.0
51
270.0
0
ARC
5
153
100
AcDbEntity
8
cuttingLine
6
Solid
370
35
62
5
100
AcDbCircle
10
348.625
20
536.84791
30
0.0
40
40.375
100
AcDbArc
50
0.0
51
80.54835
0
ARC
5
157
100
AcDbEntity
8
cuttingLine
6
Solid
370
35
62
5
100
AcDbCircle
10
348.625
20
375.625
30
0.0
40
40.375
100
AcDbArc
50
-90.0
51
0.0
0
LINE
5
15b
100
AcDbEntity
8
cuttingLine
6
Solid
370
35
62
5
100
AcDbLine
10
389.0
20
536.84791
30
0.0
11
389.0
21
375.625
31
0.0
0
LINE
5
15f
100
AcDbEntity
8
cuttingLine
6
Solid
370
35
62
5
100
AcDbLine
10
308.25
20
335.25
30
0.0
11
348.625
21
335.25
31
0.0
0
LINE
5
163
100
AcDbEntity
8
cuttingLine
6
Solid
370
35
62
5
100
AcDbLine
10
2.25
20
668.25
30
0.0
11
312.75
21
668.25
31
0.0
0
LINE
5
167
100
AcDbEntity
8
cuttingLine
6
Solid
370
35
62
5
100
AcDbLine
10
2.25
20
668.25
30
0.0
11
2.25
21
667.5
31
0.0
0
LINE
5
16b
100
AcDbEntity
8
cuttingLine
6
Solid
370
35
62
5
100
AcDbLine
10
312.75
20
668.25
30
0.0
11
312.75
21
667.5
31
0.0
0
ARC
5
16f
100
AcDbEntity
8
cuttingLine
6
Solid
370
35
62
5
100
AcDbCircle
10
2.25
20
586.75
30
0.0
40
80.75
100
AcDbArc
50
90.0
51
171.56593
0
ARC
5
173
100
AcDbEntity
8
cuttingLine
6
Solid
370
35
62
5
100
AcDbCircle
10
-74.65916
20
598.1537
30
0.0
40
3.0
100
AcDbArc
50
171.56598
51
265.1142
0
LINE
5
177
100
AcDbEntity
8
foldingLine
6
Solid
370
35
62
1
100
AcDbLine
10
2.25
20
667.5
30
0.0
11
2.25
21
588.57046
31
0.0
0
ARC
5
17b
100
AcDbEntity
8
cuttingLine
6
Solid
370
35
62
5
100
AcDbCircle
10
312.75
20
586.75
30
0.0
40
80.75
100
AcDbArc
50
8.43407
51
90.0
0
ARC
5
17f
100
AcDbEntity
8
cuttingLine
6
Solid
370
35
62
5
100
AcDbCircle
10
389.65916
20
598.1537
30
0.0
40
3.0
100
AcDbArc
50
-85.1142
51
8.43402
0
LINE
5
183
100
AcDbEntity
8
foldingLine
6
Solid
370
35
62
1
100
AcDbLine
10
312.75
20
667.5
30
0.0
11
312.75
21
588.57046
31
0.0
0
LINE
5
187
100
AcDbEntity
8
cuttingLine
6
Solid
370
35
62
5
100
AcDbLine
10
6.75
20
333.75
30
0.0
11
6.75
21
335.25
31
0.0
0
LINE
5
18b
100
AcDbEntity
8
cuttingLine
6
Solid
370
35
62
5
100
AcDbLine
10
308.25
20
333.75
30
0.0
11
308.25
21
335.25
31
0.0
0
LINE
5
18f
100
AcDbEntity
8
foldingLine
6
Solid
370
35
62
1
100
AcDbLine
10
6.75
20
335.25
30
0.0
11
6.75
21
586.75
31
0.0
0
LINE
5
193
100
AcDbEntity
8
foldingLine
6
Solid
370
35
62
1
100
AcDbLine
10
6.75
20
586.75
30
0.0
11
308.25
21
586.75
31
0.0
0
LINE
5
197
100
AcDbEntity
8
foldingLine
6
Solid
370
35
62
1
100
AcDbLine
10
308.25
20
586.75
30
0.0
11
308.25
21
335.25
31
0.0
0
ARC
5
19b
100
AcDbEntity
8
cuttingLine
6
Solid
370
35
62
5
100
AcDbCircle
10
4.66224
20
586.26894
30
0.0
40
2.08777
100
AcDbArc
50
-80.54846
51
85.11551
0
LINE
5
19f
100
AcDbEntity
8
cuttingLine
6
Solid
370
35
62
5
100
AcDbLine
10
-40.25519
20
576.6748
30
0.0
11
5.00508
21
584.20951
31
0.0
0
LINE
5
1a3
100
AcDbEntity
8
cuttingLine
6
Solid
370
35
62
5
100
AcDbLine
10
-74.91467
20
595.1646
30
0.0
11
4.84
21
588.34913
31
0.0
0
ARC
5
1a7
100
AcDbEntity
8
cuttingLine
6
Solid
370
35
62
5
100
AcDbCircle
10
310.33776
20
586.26894
30
0.0
40
2.08777
100
AcDbArc
50
94.88427
51
260.54824
0
LINE
5
1ab
100
AcDbEntity
8
cuttingLine
6
Solid
370
35
62
5
100
AcDbLine
10
355.25519
20
576.6748
30
0.0
11
309.99492
21
584.20951
31
0.0
0
LINE
5
1af
100
AcDbEntity
8
cuttingLine
6
Solid
370
35
62
5
100
AcDbLine
10
389.91467
20
595.1646
30
0.0
11
310.16
21
588.34913
31
0.0
0
ENDSEC
0
SECTION
2
OBJECTS
0
DICTIONARY
5
17
330
0
100
AcDbDictionary
281
1
3
ACAD_GROUP
350
18
0
DICTIONARY
5
18
330
17
100
AcDbDictionary
281
1
0
ENDSEC
0
EOF
