999
300x200x80.dxf
0
SECTION
2
HEADER
9
$ACADVER
1
AC1021
9
$HANDSEED
5
189
9
$INSUNITS
70
5
0
ENDSEC
0
SECTION
2
CLASSES
0
ENDSEC
0
SECTION
2
TABLES
0
TABLE
2
VPORT
5
2
100
AcDbSymbolTable
70
1
0
VPORT
5
1
100
AcDbSymbolTableRecord
100
AcDbViewportTableRecord
2
*ACTIVE
10
0
20
0
11
1
21
1
12
500.0
22
500.0
40
1000.0
70
0
0
ENDTAB
0
TABLE
2
LTYPE
5
3
100
AcDbSymbolTable
70
3
0
LTYPE
5
b
100
AcDbSymbolTableRecord
100
AcDbLinetypeTableRecord
2
Solid
70
0
72
65
73
0
3

0
LTYPE
5
c
100
AcDbSymbolTableRecord
100
AcDbLinetypeTableRecord
2
ByBlock
70
0
72
65
73
0
3

0
LTYPE
5
d
100
AcDbSymbolTableRecord
100
AcDbLinetypeTableRecord
2
ByLayer
70
0
72
65
73
0
3

0
ENDTAB
0
TABLE
2
LAYER
5
4
100
AcDbSymbolTable
70
11
0
LAYER
5
e
100
AcDbSymbolTableRecord
100
AcDbLayerTableRecord
2
0
6
Solid
370
35
62
0
70
0
390
0
0
LAYER
5
19
100
AcDbSymbolTableRecord
100
AcDbLayerTableRecord
2
foldingLine
6
Solid
370
35
62
0
70
0
390
0
0
LAYER
5
29
100
AcDbSymbolTableRecord
100
AcDbLayerTableRecord
2
cuttingLine
6
Solid
370
35
62
1
70
0
390
0
0
LAYER
5
49
100
AcDbSymbolTableRecord
100
AcDbLayerTableRecord
2
foldingLine
6
Solid
370
35
62
1
70
0
390
0
0
LAYER
5
7d
100
AcDbSymbolTableRecord
100
AcDbLayerTableRecord
2
foldingLine
6
Solid
370
35
62
5
70
0
390
0
0
LAYER
5
81
100
AcDbSymbolTableRecord
100
AcDbLayerTableRecord
2
foldingLine
6
Solid
370
35
62
1
70
0
390
0
0
LAYER
5
c9
100
AcDbSymbolTableRecord
100
AcDbLayerTableRecord
2
foldingLine
6
Solid
370
35
62
5
70
0
390
0
0
LAYER
5
d5
100
AcDbSymbolTableRecord
100
AcDbLayerTableRecord
2
foldingLine
6
Solid
370
35
62
5
70
0
390
0
0
LAYER
5
14d
100
AcDbSymbolTableRecord
100
AcDbLayerTableRecord
2
foldingLine
6
Solid
370
35
62
5
70
0
390
0
0
LAYER
5
165
100
AcDbSymbolTableRecord
100
AcDbLayerTableRecord
2
foldingLine
6
Solid
370
35
62
5
70
0
390
0
0
LAYER
5
169
100
AcDbSymbolTableRecord
100
AcDbLayerTableRecord
2
foldingLine
6
Solid
370
35
62
1
70
0
390
0
0
ENDTAB
0
TABLE
2
STYLE
5
5
100
AcDbSymbolTable
70
0
0
ENDTAB
0
TABLE
2
VIEW
5
6
100
AcDbSymbolTable
70
0
0
ENDTAB
0
TABLE
2
UCS
5
7
100
AcDbSymbolTable
70
0
0
ENDTAB
0
TABLE
2
APPID
5
8
100
AcDbSymbolTable
70
1
0
APPID
5
10
100
AcDbSymbolTableRecord
100
AcDbRegAppTableRecord
2
ACAD
70
0
0
ENDTAB
0
TABLE
2
DIMSTYLE
5
9
100
AcDbSymbolTable
70
0
100
AcDbDimStyleTable
71
1
0
ENDTAB
0
TABLE
2
BLOCK_RECORD
5
a
100
AcDbSymbolTable
70
2
0
BLOCK_RECORD
5
13
100
AcDbSymbolTableRecord
100
AcDbBlockTableRecord
2
*Model_Space
70
0
280
1
281
0
0
BLOCK_RECORD
5
16
100
AcDbSymbolTableRecord
100
AcDbBlockTableRecord
2
*Paper_Space
70
0
280
1
281
0
0
ENDTAB
0
ENDSEC
0
SECTION
2
BLOCKS
0
BLOCK
5
11
100
AcDbEntity
8
0
100
AcDbBlockBegin
2
*Model_Space
70
0
10
0
20
0
30
0
3
*Model_Space
1

0
ENDBLK
5
12
100
AcDbEntity
8
0
100
AcDbBlockEnd
0
BLOCK
5
14
100
AcDbEntity
8
0
100
AcDbBlockBegin
2
*Paper_Space
70
0
10
0
20
0
30
0
3
*Paper_Space
1

0
ENDBLK
5
15
100
AcDbEntity
8
0
100
AcDbBlockEnd
0
ENDSEC
0
SECTION
2
ENTITIES
0
LINE
5
1b
100
AcDbEntity
8
foldingLine
6
Solid
370
35
62
1
100
AcDbLine
10
0.0
20
0.0
30
0.0
11
0.0
21
41.2
31
0.0
0
LINE
5
1f
100
AcDbEntity
8
foldingLine
6
Solid
370
35
62
1
100
AcDbLine
10
330.0
20
0.0
30
0.0
11
330.0
21
41.2
31
0.0
0
LINE
5
23
100
AcDbEntity
8
foldingLine
6
Solid
370
35
62
1
100
AcDbLine
10
0.0
20
0.0
30
0.0
11
0.0
21
41.2
31
0.0
0
LINE
5
27
100
AcDbEntity
8
foldingLine
6
Solid
370
35
62
1
100
AcDbLine
10
330.0
20
0.0
30
0.0
11
330.0
21
41.2
31
0.0
0
LWPOLYLINE
5
2b
100
AcDbEntity
8
cuttingLine
6
Solid
370
35
62
5
100
AcDbPolyline
90
5
70
1
10
0.0
20
41.2
30
0.0
10
0.0
20
82.4
30
0.0
10
10.5
20
82.4
30
0.0
10
10.5
20
41.2
30
0.0
10
0.0
20
41.2
30
0.0
0
LWPOLYLINE
5
2f
100
AcDbEntity
8
cuttingLine
6
Solid
370
35
62
5
100
AcDbPolyline
90
5
70
1
10
330.0
20
41.2
30
0.0
10
330.0
20
82.4
30
0.0
10
319.5
20
82.4
30
0.0
10
319.5
20
41.2
30
0.0
10
330.0
20
41.2
30
0.0
0
LINE
5
33
100
AcDbEntity
8
foldingLine
6
Solid
370
35
62
1
100
AcDbLine
10
0.0
20
82.4
30
0.0
11
0.0
21
123.6
31
0.0
0
LINE
5
37
100
AcDbEntity
8
foldingLine
6
Solid
370
35
62
1
100
AcDbLine
10
330.0
20
82.4
30
0.0
11
330.0
21
123.6
31
0.0
0
LWPOLYLINE
5
3b
100
AcDbEntity
8
cuttingLine
6
Solid
370
35
62
5
100
AcDbPolyline
90
5
70
1
10
0.0
20
123.6
30
0.0
10
0.0
20
164.8
30
0.0
10
10.5
20
164.8
30
0.0
10
10.5
20
123.6
30
0.0
10
0.0
20
123.6
30
0.0
0
LWPOLYLINE
5
3f
100
AcDbEntity
8
cuttingLine
6
Solid
370
35
62
5
100
AcDbPolyline
90
5
70
1
10
330.0
20
123.6
30
0.0
10
330.0
20
164.8
30
0.0
10
319.5
20
164.8
30
0.0
10
319.5
20
123.6
30
0.0
10
330.0
20
123.6
30
0.0
0
LINE
5
43
100
AcDbEntity
8
foldingLine
6
Solid
370
35
62
1
100
AcDbLine
10
0.0
20
164.8
30
0.0
11
0.0
21
206.0
31
0.0
0
LINE
5
47
100
AcDbEntity
8
foldingLine
6
Solid
370
35
62
1
100
AcDbLine
10
330.0
20
164.8
30
0.0
11
330.0
21
206.0
31
0.0
0
LINE
5
4b
100
AcDbEntity
8
foldingLine
6
Solid
370
35
62
1
100
AcDbLine
10
6.0
20
1.5
30
0.0
11
324.0
21
1.5
31
0.0
0
LINE
5
4f
100
AcDbEntity
8
foldingLine
6
Solid
370
35
62
1
100
AcDbLine
10
3.0
20
204.5
30
0.0
11
327.0
21
204.5
31
0.0
0
LINE
5
53
100
AcDbEntity
8
cuttingLine
6
Solid
370
35
62
5
100
AcDbLine
10
0.0
20
206.0
30
0.0
11
3.0
21
204.5
31
0.0
0
LINE
5
57
100
AcDbEntity
8
cuttingLine
6
Solid
370
35
62
5
100
AcDbLine
10
327.0
20
204.5
30
0.0
11
330.0
21
206.0
31
0.0
0
LINE
5
5b
100
AcDbEntity
8
cuttingLine
6
Solid
370
35
62
5
100
AcDbLine
10
0.0
20
0.0
30
0.0
11
6.0
21
1.5
31
0.0
0
LINE
5
5f
100
AcDbEntity
8
cuttingLine
6
Solid
370
35
62
5
100
AcDbLine
10
330.0
20
0.0
30
0.0
11
324.0
21
1.5
31
0.0
0
LINE
5
63
100
AcDbEntity
8
cuttingLine
6
Solid
370
35
62
5
100
AcDbLine
10
-173.5
20
3.0
30
0.0
11
-173.5
21
41.2
31
0.0
0
LINE
5
67
100
AcDbEntity
8
cuttingLine
6
Solid
370
35
62
5
100
AcDbLine
10
-173.5
20
41.2
30
0.0
11
-176.5
21
42.7
31
0.0
0
LINE
5
69
100
AcDbEntity
8
cuttingLine
6
Solid
370
35
62
5
100
AcDbLine
10
-176.5
20
42.7
30
0.0
11
-176.5
21
80.9
31
0.0
0
LINE
5
6b
100
AcDbEntity
8
cuttingLine
6
Solid
370
35
62
5
100
AcDbLine
10
-176.5
20
80.9
30
0.0
11
-173.5
21
82.4
31
0.0
0
LINE
5
6f
100
AcDbEntity
8
cuttingLine
6
Solid
370
35
62
5
100
AcDbLine
10
-173.5
20
82.4
30
0.0
11
-173.5
21
123.6
31
0.0
0
LINE
5
73
100
AcDbEntity
8
cuttingLine
6
Solid
370
35
62
5
100
AcDbLine
10
-173.5
20
123.6
30
0.0
11
-176.5
21
125.1
31
0.0
0
LINE
5
75
100
AcDbEntity
8
cuttingLine
6
Solid
370
35
62
5
100
AcDbLine
10
-176.5
20
125.1
30
0.0
11
-176.5
21
163.3
31
0.0
0
LINE
5
77
100
AcDbEntity
8
cuttingLine
6
Solid
370
35
62
5
100
AcDbLine
10
-176.5
20
163.3
30
0.0
11
-173.5
21
164.8
31
0.0
0
LINE
5
7b
100
AcDbEntity
8
cuttingLine
6
Solid
370
35
62
5
100
AcDbLine
10
-173.5
20
164.8
30
0.0
11
-173.5
21
203.0
31
0.0
0
LINE
5
7f
100
AcDbEntity
8
foldingLine
6
Solid
370
35
62
1
100
AcDbLine
10
-83.0
20
0.0
30
0.0
11
-83.0
21
206.0
31
0.0
0
LINE
5
83
100
AcDbEntity
8
foldingLine
6
Solid
370
35
62
1
100
AcDbLine
10
-92.0
20
3.0
30
0.0
11
-92.0
21
203.0
31
0.0
0
LINE
5
87
100
AcDbEntity
8
cuttingLine
6
Solid
370
35
62
5
100
AcDbLine
10
0.0
20
0.0
30
0.0
11
-83.0
21
0.0
31
0.0
0
LINE
5
89
100
AcDbEntity
8
cuttingLine
6
Solid
370
35
62
5
100
AcDbLine
10
-83.0
20
0.0
30
0.0
11
-92.0
21
3.0
31
0.0
0
LINE
5
8b
100
AcDbEntity
8
cuttingLine
6
Solid
370
35
62
5
100
AcDbLine
10
-92.0
20
3.0
30
0.0
11
-173.5
21
3.0
31
0.0
0
LINE
5
8f
100
AcDbEntity
8
cuttingLine
6
Solid
370
35
62
5
100
AcDbLine
10
0.0
20
206.0
30
0.0
11
-83.0
21
206.0
31
0.0
0
LINE
5
91
100
AcDbEntity
8
cuttingLine
6
Solid
370
35
62
5
100
AcDbLine
10
-83.0
20
206.0
30
0.0
11
-92.0
21
203.0
31
0.0
0
LINE
5
93
100
AcDbEntity
8
cuttingLine
6
Solid
370
35
62
5
100
AcDbLine
10
-92.0
20
203.0
30
0.0
11
-173.5
21
203.0
31
0.0
0
LINE
5
97
100
AcDbEntity
8
cuttingLine
6
Solid
370
35
62
5
100
AcDbLine
10
503.5
20
3.0
30
0.0
11
503.5
21
41.2
31
0.0
0
LINE
5
9b
100
AcDbEntity
8
cuttingLine
6
Solid
370
35
62
5
100
AcDbLine
10
503.5
20
41.2
30
0.0
11
506.5
21
42.7
31
0.0
0
LINE
5
9d
100
AcDbEntity
8
cuttingLine
6
Solid
370
35
62
5
100
AcDbLine
10
506.5
20
42.7
30
0.0
11
506.5
21
80.9
31
0.0
0
LINE
5
9f
100
AcDbEntity
8
cuttingLine
6
Solid
370
35
62
5
100
AcDbLine
10
506.5
20
80.9
30
0.0
11
503.5
21
82.4
31
0.0
0
LINE
5
a3
100
AcDbEntity
8
cuttingLine
6
Solid
370
35
62
5
100
AcDbLine
10
503.5
20
82.4
30
0.0
11
503.5
21
123.6
31
0.0
0
LINE
5
a7
100
AcDbEntity
8
cuttingLine
6
Solid
370
35
62
5
100
AcDbLine
10
503.5
20
123.6
30
0.0
11
506.5
21
125.1
31
0.0
0
LINE
5
a9
100
AcDbEntity
8
cuttingLine
6
Solid
370
35
62
5
100
AcDbLine
10
506.5
20
125.1
30
0.0
11
506.5
21
163.3
31
0.0
0
LINE
5
ab
100
AcDbEntity
8
cuttingLine
6
Solid
370
35
62
5
100
AcDbLine
10
506.5
20
163.3
30
0.0
11
503.5
21
164.8
31
0.0
0
LINE
5
af
100
AcDbEntity
8
cuttingLine
6
Solid
370
35
62
5
100
AcDbLine
10
503.5
20
164.8
30
0.0
11
503.5
21
203.0
31
0.0
0
LINE
5
b3
100
AcDbEntity
8
foldingLine
6
Solid
370
35
62
1
100
AcDbLine
10
413.0
20
0.0
30
0.0
11
413.0
21
206.0
31
0.0
0
LINE
5
b7
100
AcDbEntity
8
foldingLine
6
Solid
370
35
62
1
100
AcDbLine
10
422.0
20
3.0
30
0.0
11
422.0
21
203.0
31
0.0
0
LINE
5
bb
100
AcDbEntity
8
cuttingLine
6
Solid
370
35
62
5
100
AcDbLine
10
330.0
20
0.0
30
0.0
11
413.0
21
0.0
31
0.0
0
LINE
5
bd
100
AcDbEntity
8
cuttingLine
6
Solid
370
35
62
5
100
AcDbLine
10
413.0
20
0.0
30
0.0
11
422.0
21
3.0
31
0.0
0
LINE
5
bf
100
AcDbEntity
8
cuttingLine
6
Solid
370
35
62
5
100
AcDbLine
10
422.0
20
3.0
30
0.0
11
503.5
21
3.0
31
0.0
0
LINE
5
c3
100
AcDbEntity
8
cuttingLine
6
Solid
370
35
62
5
100
AcDbLine
10
330.0
20
206.0
30
0.0
11
413.0
21
206.0
31
0.0
0
LINE
5
c5
100
AcDbEntity
8
cuttingLine
6
Solid
370
35
62
5
100
AcDbLine
10
413.0
20
206.0
30
0.0
11
422.0
21
203.0
31
0.0
0
LINE
5
c7
100
AcDbEntity
8
cuttingLine
6
Solid
370
35
62
5
100
AcDbLine
10
422.0
20
203.0
30
0.0
11
503.5
21
203.0
31
0.0
0
LINE
5
cb
100
AcDbEntity
8
foldingLine
6
Solid
370
35
62
1
100
AcDbLine
10
6.0
20
1.5
30
0.0
11
6.0
21
-80.0
31
0.0
0
LINE
5
cf
100
AcDbEntity
8
foldingLine
6
Solid
370
35
62
1
100
AcDbLine
10
324.0
20
1.5
30
0.0
11
324.0
21
-80.0
31
0.0
0
LINE
5
d3
100
AcDbEntity
8
cuttingLine
6
Solid
370
35
62
5
100
AcDbLine
10
6.0
20
-80.0
30
0.0
11
324.0
21
-80.0
31
0.0
0
LINE
5
d7
100
AcDbEntity
8
foldingLine
6
Solid
370
35
62
1
100
AcDbLine
10
13.5
20
287.5
30
0.0
11
316.5
21
287.5
31
0.0
0
LINE
5
db
100
AcDbEntity
8
foldingLine
6
Solid
370
35
62
1
100
AcDbLine
10
3.0
20
204.5
30
0.0
11
3.0
21
286.0
31
0.0
0
LINE
5
df
100
AcDbEntity
8
foldingLine
6
Solid
370
35
62
1
100
AcDbLine
10
327.0
20
204.5
30
0.0
11
327.0
21
286.0
31
0.0
0
LINE
5
e3
100
AcDbEntity
8
cuttingLine
6
Solid
370
35
62
5
100
AcDbLine
10
13.5
20
287.5
30
0.0
11
3.0
21
286.0
31
0.0
0
LINE
5
e7
100
AcDbEntity
8
cuttingLine
6
Solid
370
35
62
5
100
AcDbLine
10
316.5
20
287.5
30
0.0
11
327.0
21
286.0
31
0.0
0
POINT
5
eb
100
AcDbEntity
8
cuttingLine
6
Solid
370
35
62
5
100
AcDbPoint
10
3.0
20
204.5
30
0.0
0
POINT
5
ef
100
AcDbEntity
8
cuttingLine
6
Solid
370
35
62
5
100
AcDbPoint
10
327.0
20
204.5
30
0.0
0
LINE
5
f3
100
AcDbEntity
8
cuttingLine
6
Solid
370
35
62
5
100
AcDbLine
10
-83.0
20
206.0
30
0.0
11
-83.0
21
209.0
31
0.0
0
LINE
5
f5
100
AcDbEntity
8
cuttingLine
6
Solid
370
35
62
5
100
AcDbLine
10
-83.0
20
209.0
30
0.0
11
-95.5
21
210.97981
31
0.0
0
LINE
5
f7
100
AcDbEntity
8
cuttingLine
6
Solid
370
35
62
5
100
AcDbLine
10
-95.5
20
210.97981
30
0.0
11
-95.5
21
286.0
31
0.0
0
LINE
5
f9
100
AcDbEntity
8
cuttingLine
6
Solid
370
35
62
5
100
AcDbLine
10
-95.5
20
286.0
30
0.0
11
3.0
21
286.0
31
0.0
0
LINE
5
fd
100
AcDbEntity
8
cuttingLine
6
Solid
370
35
62
5
100
AcDbLine
10
413.0
20
206.0
30
0.0
11
413.0
21
209.0
31
0.0
0
LINE
5
ff
100
AcDbEntity
8
cuttingLine
6
Solid
370
35
62
5
100
AcDbLine
10
413.0
20
209.0
30
0.0
11
425.5
21
210.97981
31
0.0
0
LINE
5
101
100
AcDbEntity
8
cuttingLine
6
Solid
370
35
62
5
100
AcDbLine
10
425.5
20
210.97981
30
0.0
11
425.5
21
286.0
31
0.0
0
LINE
5
103
100
AcDbEntity
8
cuttingLine
6
Solid
370
35
62
5
100
AcDbLine
10
425.5
20
286.0
30
0.0
11
327.0
21
286.0
31
0.0
0
LINE
5
107
100
AcDbEntity
8
cuttingLine
6
Solid
370
35
62
5
100
AcDbLine
10
413.0
20
0.0
30
0.0
11
413.0
21
-3.0
31
0.0
0
LINE
5
109
100
AcDbEntity
8
cuttingLine
6
Solid
370
35
62
5
100
AcDbLine
10
413.0
20
-3.0
30
0.0
11
425.5
21
-4.97981
31
0.0
0
LINE
5
10b
100
AcDbEntity
8
cuttingLine
6
Solid
370
35
62
5
100
AcDbLine
10
425.5
20
-4.97981
30
0.0
11
425.5
21
-80.0
31
0.0
0
LINE
5
10d
100
AcDbEntity
8
cuttingLine
6
Solid
370
35
62
5
100
AcDbLine
10
425.5
20
-80.0
30
0.0
11
324.0
21
-80.0
31
0.0
0
LINE
5
111
100
AcDbEntity
8
cuttingLine
6
Solid
370
35
62
5
100
AcDbLine
10
-83.0
20
0.0
30
0.0
11
-83.0
21
-3.0
31
0.0
0
LINE
5
113
100
AcDbEntity
8
cuttingLine
6
Solid
370
35
62
5
100
AcDbLine
10
-83.0
20
-3.0
30
0.0
11
-95.5
21
-4.97981
31
0.0
0
LINE
5
115
100
AcDbEntity
8
cuttingLine
6
Solid
370
35
62
5
100
AcDbLine
10
-95.5
20
-4.97981
30
0.0
11
-95.5
21
-80.0
31
0.0
0
LINE
5
117
100
AcDbEntity
8
cuttingLine
6
Solid
370
35
62
5
100
AcDbLine
10
-95.5
20
-80.0
30
0.0
11
6.0
21
-80.0
31
0.0
0
LINE
5
11b
100
AcDbEntity
8
cuttingLine
6
Solid
370
35
62
5
100
AcDbLine
10
-68.0
20
438.5695
30
0.0
11
-68.0
21
331.25
31
0.0
0
LINE
5
11f
100
AcDbEntity
8
cuttingLine
6
Solid
370
35
62
5
100
AcDbLine
10
13.5
20
290.5
30
0.0
11
-27.25
21
290.5
31
0.0
0
ARC
5
123
100
AcDbEntity
8
cuttingLine
6
Solid
370
35
62
5
100
AcDbCircle
10
-27.25
20
438.5695
30
0.0
40
40.75
100
AcDbArc
50
102.12061
51
180.0
0
ARC
5
127
100
AcDbEntity
8
cuttingLine
6
Solid
370
35
62
5
100
AcDbCircle
10
-27.25
20
331.25
30
0.0
40
40.75
100
AcDbArc
50
180.0
51
270.0
0
ARC
5
12b
100
AcDbEntity
8
cuttingLine
6
Solid
370
35
62
5
100
AcDbCircle
10
357.25
20
438.5695
30
0.0
40
40.75
100
AcDbArc
50
0.0
51
77.87939
0
ARC
5
12f
100
AcDbEntity
8
cuttingLine
6
Solid
370
35
62
5
100
AcDbCircle
10
357.25
20
331.25
30
0.0
40
40.75
100
AcDbArc
50
-90.0
51
0.0
0
LINE
5
133
100
AcDbEntity
8
cuttingLine
6
Solid
370
35
62
5
100
AcDbLine
10
398.0
20
438.5695
30
0.0
11
398.0
21
331.25
31
0.0
0
LINE
5
137
100
AcDbEntity
8
cuttingLine
6
Solid
370
35
62
5
100
AcDbLine
10
316.5
20
290.5
30
0.0
11
357.25
21
290.5
31
0.0
0
LINE
5
13b
100
AcDbEntity
8
cuttingLine
6
Solid
370
35
62
5
100
AcDbLine
10
4.5
20
576.5
30
0.0
11
325.5
21
576.5
31
0.0
0
LINE
5
13f
100
AcDbEntity
8
cuttingLine
6
Solid
370
35
62
5
100
AcDbLine
10
4.5
20
576.5
30
0.0
11
4.5
21
575.0
31
0.0
0
LINE
5
143
100
AcDbEntity
8
cuttingLine
6
Solid
370
35
62
5
100
AcDbLine
10
325.5
20
576.5
30
0.0
11
325.5
21
575.0
31
0.0
0
ARC
5
147
100
AcDbEntity
8
cuttingLine
6
Solid
370
35
62
5
100
AcDbCircle
10
4.5
20
493.5
30
0.0
40
81.5
100
AcDbArc
50
90.0
51
170.15838
0
ARC
5
14b
100
AcDbEntity
8
cuttingLine
6
Solid
370
35
62
5
100
AcDbCircle
10
-72.84479
20
506.91763
30
0.0
40
3.0
100
AcDbArc
50
170.15833
51
265.00992
0
LINE
5
14f
100
AcDbEntity
8
foldingLine
6
Solid
370
35
62
1
100
AcDbLine
10
4.5
20
575.0
30
0.0
11
4.5
21
497.15469
31
0.0
0
ARC
5
153
100
AcDbEntity
8
cuttingLine
6
Solid
370
35
62
5
100
AcDbCircle
10
325.5
20
493.5
30
0.0
40
81.5
100
AcDbArc
50
9.84162
51
90.0
0
ARC
5
157
100
AcDbEntity
8
cuttingLine
6
Solid
370
35
62
5
100
AcDbCircle
10
402.84479
20
506.91763
30
0.0
40
3.0
100
AcDbArc
50
-85.00992
51
9.84167
0
LINE
5
15b
100
AcDbEntity
8
foldingLine
6
Solid
370
35
62
1
100
AcDbLine
10
325.5
20
575.0
30
0.0
11
325.5
21
497.15469
31
0.0
0
LINE
5
15f
100
AcDbEntity
8
cuttingLine
6
Solid
370
35
62
5
100
AcDbLine
10
13.5
20
287.5
30
0.0
11
13.5
21
290.5
31
0.0
0
LINE
5
163
100
AcDbEntity
8
cuttingLine
6
Solid
370
35
62
5
100
AcDbLine
10
316.5
20
287.5
30
0.0
11
316.5
21
290.5
31
0.0
0
LINE
5
167
100
AcDbEntity
8
foldingLine
6
Solid
370
35
62
1
100
AcDbLine
10
13.5
20
290.5
30
0.0
11
13.5
21
493.5
31
0.0
0
LINE
5
16b
100
AcDbEntity
8
foldingLine
6
Solid
370
35
62
1
100
AcDbLine
10
13.5
20
493.5
30
0.0
11
316.5
21
493.5
31
0.0
0
LINE
5
16f
100
AcDbEntity
8
foldingLine
6
Solid
370
35
62
1
100
AcDbLine
10
316.5
20
493.5
30
0.0
11
316.5
21
290.5
31
0.0
0
ARC
5
173
100
AcDbEntity
8
cuttingLine
6
Solid
370
35
62
5
100
AcDbCircle
10
9.22699
20
492.45279
30
0.0
40
4.27303
100
AcDbArc
50
-77.87937
51
85.01122
0
LINE
5
177
100
AcDbEntity
8
cuttingLine
6
Solid
370
35
62
5
100
AcDbLine
10
-35.80629
20
478.41109
30
0.0
11
10.1242
21
488.27502
31
0.0
0
LINE
5
17b
100
AcDbEntity
8
cuttingLine
6
Solid
370
35
62
5
100
AcDbLine
10
-73.10574
20
503.929
30
0.0
11
9.59858
21
496.70962
31
0.0
0
ARC
5
17f
100
AcDbEntity
8
cuttingLine
6
Solid
370
35
62
5
100
AcDbCircle
10
320.77301
20
492.45279
30
0.0
40
4.27303
100
AcDbArc
50
94.98885
51
257.87944
0
LINE
5
183
100
AcDbEntity
8
cuttingLine
6
Solid
370
35
62
5
100
AcDbLine
10
365.80629
20
478.41109
30
0.0
11
319.8758
21
488.27502
31
0.0
0
LINE
5
187
100
AcDbEntity
8
cuttingLine
6
Solid
370
35
62
5
100
AcDbLine
10
403.10574
20
503.929
30
0.0
11
320.40142
21
496.70962
31
0.0
0
ENDSEC
0
SECTION
2
OBJECTS
0
DICTIONARY
5
17
330
0
100
AcDbDictionary
281
1
3
ACAD_GROUP
350
18
0
DICTIONARY
5
18
330
17
100
AcDbDictionary
281
1
0
ENDSEC
0
EOF
