999
300x200x120.dxf
0
SECTION
2
HEADER
9
$ACADVER
1
AC1021
9
$HANDSEED
5
189
9
$INSUNITS
70
5
0
ENDSEC
0
SECTION
2
CLASSES
0
ENDSEC
0
SECTION
2
TABLES
0
TABLE
2
VPORT
5
2
100
AcDbSymbolTable
70
1
0
VPORT
5
1
100
AcDbSymbolTableRecord
100
AcDbViewportTableRecord
2
*ACTIVE
10
0
20
0
11
1
21
1
12
500.0
22
500.0
40
1000.0
70
0
0
ENDTAB
0
TABLE
2
LTYPE
5
3
100
AcDbSymbolTable
70
3
0
LTYPE
5
b
100
AcDbSymbolTableRecord
100
AcDbLinetypeTableRecord
2
Solid
70
0
72
65
73
0
3

0
LTYPE
5
c
100
AcDbSymbolTableRecord
100
AcDbLinetypeTableRecord
2
ByBlock
70
0
72
65
73
0
3

0
LTYPE
5
d
100
AcDbSymbolTableRecord
100
AcDbLinetypeTableRecord
2
ByLayer
70
0
72
65
73
0
3

0
ENDTAB
0
TABLE
2
LAYER
5
4
100
AcDbSymbolTable
70
11
0
LAYER
5
e
100
AcDbSymbolTableRecord
100
AcDbLayerTableRecord
2
0
6
Solid
370
35
62
0
70
0
390
0
0
LAYER
5
19
100
AcDbSymbolTableRecord
100
AcDbLayerTableRecord
2
foldingLine
6
Solid
370
35
62
0
70
0
390
0
0
LAYER
5
29
100
AcDbSymbolTableRecord
100
AcDbLayerTableRecord
2
cuttingLine
6
Solid
370
35
62
1
70
0
390
0
0
LAYER
5
49
100
AcDbSymbolTableRecord
100
AcDbLayerTableRecord
2
foldingLine
6
Solid
370
35
62
1
70
0
390
0
0
LAYER
5
7d
100
AcDbSymbolTableRecord
100
AcDbLayerTableRecord
2
foldingLine
6
Solid
370
35
62
5
70
0
390
0
0
LAYER
5
81
100
AcDbSymbolTableRecord
100
AcDbLayerTableRecord
2
foldingLine
6
Solid
370
35
62
1
70
0
390
0
0
LAYER
5
c9
100
AcDbSymbolTableRecord
100
AcDbLayerTableRecord
2
foldingLine
6
Solid
370
35
62
5
70
0
390
0
0
LAYER
5
d5
100
AcDbSymbolTableRecord
100
AcDbLayerTableRecord
2
foldingLine
6
Solid
370
35
62
5
70
0
390
0
0
LAYER
5
14d
100
AcDbSymbolTableRecord
100
AcDbLayerTableRecord
2
foldingLine
6
Solid
370
35
62
5
70
0
390
0
0
LAYER
5
165
100
AcDbSymbolTableRecord
100
AcDbLayerTableRecord
2
foldingLine
6
Solid
370
35
62
5
70
0
390
0
0
LAYER
5
169
100
AcDbSymbolTableRecord
100
AcDbLayerTableRecord
2
foldingLine
6
Solid
370
35
62
1
70
0
390
0
0
ENDTAB
0
TABLE
2
STYLE
5
5
100
AcDbSymbolTable
70
0
0
ENDTAB
0
TABLE
2
VIEW
5
6
100
AcDbSymbolTable
70
0
0
ENDTAB
0
TABLE
2
UCS
5
7
100
AcDbSymbolTable
70
0
0
ENDTAB
0
TABLE
2
APPID
5
8
100
AcDbSymbolTable
70
1
0
APPID
5
10
100
AcDbSymbolTableRecord
100
AcDbRegAppTableRecord
2
ACAD
70
0
0
ENDTAB
0
TABLE
2
DIMSTYLE
5
9
100
AcDbSymbolTable
70
0
100
AcDbDimStyleTable
71
1
0
ENDTAB
0
TABLE
2
BLOCK_RECORD
5
a
100
AcDbSymbolTable
70
2
0
BLOCK_RECORD
5
13
100
AcDbSymbolTableRecord
100
AcDbBlockTableRecord
2
*Model_Space
70
0
280
1
281
0
0
BLOCK_RECORD
5
16
100
AcDbSymbolTableRecord
100
AcDbBlockTableRecord
2
*Paper_Space
70
0
280
1
281
0
0
ENDTAB
0
ENDSEC
0
SECTION
2
BLOCKS
0
BLOCK
5
11
100
AcDbEntity
8
0
100
AcDbBlockBegin
2
*Model_Space
70
0
10
0
20
0
30
0
3
*Model_Space
1

0
ENDBLK
5
12
100
AcDbEntity
8
0
100
AcDbBlockEnd
0
BLOCK
5
14
100
AcDbEntity
8
0
100
AcDbBlockBegin
2
*Paper_Space
70
0
10
0
20
0
30
0
3
*Paper_Space
1

0
ENDBLK
5
15
100
AcDbEntity
8
0
100
AcDbBlockEnd
0
ENDSEC
0
SECTION
2
ENTITIES
0
LINE
5
1b
100
AcDbEntity
8
foldingLine
6
Solid
370
35
62
1
100
AcDbLine
10
0.0
20
0.0
30
0.0
11
0.0
21
40.6
31
0.0
0
LINE
5
1f
100
AcDbEntity
8
foldingLine
6
Solid
370
35
62
1
100
AcDbLine
10
315.0
20
0.0
30
0.0
11
315.0
21
40.6
31
0.0
0
LINE
5
23
100
AcDbEntity
8
foldingLine
6
Solid
370
35
62
1
100
AcDbLine
10
0.0
20
0.0
30
0.0
11
0.0
21
40.6
31
0.0
0
LINE
5
27
100
AcDbEntity
8
foldingLine
6
Solid
370
35
62
1
100
AcDbLine
10
315.0
20
0.0
30
0.0
11
315.0
21
40.6
31
0.0
0
LWPOLYLINE
5
2b
100
AcDbEntity
8
cuttingLine
6
Solid
370
35
62
5
100
AcDbPolyline
90
5
70
1
10
0.0
20
40.6
30
0.0
10
0.0
20
81.2
30
0.0
10
5.25
20
81.2
30
0.0
10
5.25
20
40.6
30
0.0
10
0.0
20
40.6
30
0.0
0
LWPOLYLINE
5
2f
100
AcDbEntity
8
cuttingLine
6
Solid
370
35
62
5
100
AcDbPolyline
90
5
70
1
10
315.0
20
40.6
30
0.0
10
315.0
20
81.2
30
0.0
10
309.75
20
81.2
30
0.0
10
309.75
20
40.6
30
0.0
10
315.0
20
40.6
30
0.0
0
LINE
5
33
100
AcDbEntity
8
foldingLine
6
Solid
370
35
62
1
100
AcDbLine
10
0.0
20
81.2
30
0.0
11
0.0
21
121.8
31
0.0
0
LINE
5
37
100
AcDbEntity
8
foldingLine
6
Solid
370
35
62
1
100
AcDbLine
10
315.0
20
81.2
30
0.0
11
315.0
21
121.8
31
0.0
0
LWPOLYLINE
5
3b
100
AcDbEntity
8
cuttingLine
6
Solid
370
35
62
5
100
AcDbPolyline
90
5
70
1
10
0.0
20
121.8
30
0.0
10
0.0
20
162.4
30
0.0
10
5.25
20
162.4
30
0.0
10
5.25
20
121.8
30
0.0
10
0.0
20
121.8
30
0.0
0
LWPOLYLINE
5
3f
100
AcDbEntity
8
cuttingLine
6
Solid
370
35
62
5
100
AcDbPolyline
90
5
70
1
10
315.0
20
121.8
30
0.0
10
315.0
20
162.4
30
0.0
10
309.75
20
162.4
30
0.0
10
309.75
20
121.8
30
0.0
10
315.0
20
121.8
30
0.0
0
LINE
5
43
100
AcDbEntity
8
foldingLine
6
Solid
370
35
62
1
100
AcDbLine
10
0.0
20
162.4
30
0.0
11
0.0
21
203.0
31
0.0
0
LINE
5
47
100
AcDbEntity
8
foldingLine
6
Solid
370
35
62
1
100
AcDbLine
10
315.0
20
162.4
30
0.0
11
315.0
21
203.0
31
0.0
0
LINE
5
4b
100
AcDbEntity
8
foldingLine
6
Solid
370
35
62
1
100
AcDbLine
10
3.0
20
0.75
30
0.0
11
312.0
21
0.75
31
0.0
0
LINE
5
4f
100
AcDbEntity
8
foldingLine
6
Solid
370
35
62
1
100
AcDbLine
10
1.5
20
202.25
30
0.0
11
313.5
21
202.25
31
0.0
0
LINE
5
53
100
AcDbEntity
8
cuttingLine
6
Solid
370
35
62
5
100
AcDbLine
10
0.0
20
203.0
30
0.0
11
1.5
21
202.25
31
0.0
0
LINE
5
57
100
AcDbEntity
8
cuttingLine
6
Solid
370
35
62
5
100
AcDbLine
10
313.5
20
202.25
30
0.0
11
315.0
21
203.0
31
0.0
0
LINE
5
5b
100
AcDbEntity
8
cuttingLine
6
Solid
370
35
62
5
100
AcDbLine
10
0.0
20
0.0
30
0.0
11
3.0
21
0.75
31
0.0
0
LINE
5
5f
100
AcDbEntity
8
cuttingLine
6
Solid
370
35
62
5
100
AcDbLine
10
315.0
20
0.0
30
0.0
11
312.0
21
0.75
31
0.0
0
LINE
5
63
100
AcDbEntity
8
cuttingLine
6
Solid
370
35
62
5
100
AcDbLine
10
-246.75
20
1.5
30
0.0
11
-246.75
21
40.6
31
0.0
0
LINE
5
67
100
AcDbEntity
8
cuttingLine
6
Solid
370
35
62
5
100
AcDbLine
10
-246.75
20
40.6
30
0.0
11
-249.25
21
41.85
31
0.0
0
LINE
5
69
100
AcDbEntity
8
cuttingLine
6
Solid
370
35
62
5
100
AcDbLine
10
-249.25
20
41.85
30
0.0
11
-249.25
21
79.95
31
0.0
0
LINE
5
6b
100
AcDbEntity
8
cuttingLine
6
Solid
370
35
62
5
100
AcDbLine
10
-249.25
20
79.95
30
0.0
11
-246.75
21
81.2
31
0.0
0
LINE
5
6f
100
AcDbEntity
8
cuttingLine
6
Solid
370
35
62
5
100
AcDbLine
10
-246.75
20
81.2
30
0.0
11
-246.75
21
121.8
31
0.0
0
LINE
5
73
100
AcDbEntity
8
cuttingLine
6
Solid
370
35
62
5
100
AcDbLine
10
-246.75
20
121.8
30
0.0
11
-249.25
21
123.05
31
0.0
0
LINE
5
75
100
AcDbEntity
8
cuttingLine
6
Solid
370
35
62
5
100
AcDbLine
10
-249.25
20
123.05
30
0.0
11
-249.25
21
161.15
31
0.0
0
LINE
5
77
100
AcDbEntity
8
cuttingLine
6
Solid
370
35
62
5
100
AcDbLine
10
-249.25
20
161.15
30
0.0
11
-246.75
21
162.4
31
0.0
0
LINE
5
7b
100
AcDbEntity
8
cuttingLine
6
Solid
370
35
62
5
100
AcDbLine
10
-246.75
20
162.4
30
0.0
11
-246.75
21
201.5
31
0.0
0
LINE
5
7f
100
AcDbEntity
8
foldingLine
6
Solid
370
35
62
1
100
AcDbLine
10
-121.5
20
0.0
30
0.0
11
-121.5
21
203.0
31
0.0
0
LINE
5
83
100
AcDbEntity
8
foldingLine
6
Solid
370
35
62
1
100
AcDbLine
10
-126.0
20
1.5
30
0.0
11
-126.0
21
201.5
31
0.0
0
LINE
5
87
100
AcDbEntity
8
cuttingLine
6
Solid
370
35
62
5
100
AcDbLine
10
0.0
20
0.0
30
0.0
11
-121.5
21
0.0
31
0.0
0
LINE
5
89
100
AcDbEntity
8
cuttingLine
6
Solid
370
35
62
5
100
AcDbLine
10
-121.5
20
0.0
30
0.0
11
-126.0
21
1.5
31
0.0
0
LINE
5
8b
100
AcDbEntity
8
cuttingLine
6
Solid
370
35
62
5
100
AcDbLine
10
-126.0
20
1.5
30
0.0
11
-246.75
21
1.5
31
0.0
0
LINE
5
8f
100
AcDbEntity
8
cuttingLine
6
Solid
370
35
62
5
100
AcDbLine
10
0.0
20
203.0
30
0.0
11
-121.5
21
203.0
31
0.0
0
LINE
5
91
100
AcDbEntity
8
cuttingLine
6
Solid
370
35
62
5
100
AcDbLine
10
-121.5
20
203.0
30
0.0
11
-126.0
21
201.5
31
0.0
0
LINE
5
93
100
AcDbEntity
8
cuttingLine
6
Solid
370
35
62
5
100
AcDbLine
10
-126.0
20
201.5
30
0.0
11
-246.75
21
201.5
31
0.0
0
LINE
5
97
100
AcDbEntity
8
cuttingLine
6
Solid
370
35
62
5
100
AcDbLine
10
561.75
20
1.5
30
0.0
11
561.75
21
40.6
31
0.0
0
LINE
5
9b
100
AcDbEntity
8
cuttingLine
6
Solid
370
35
62
5
100
AcDbLine
10
561.75
20
40.6
30
0.0
11
564.25
21
41.85
31
0.0
0
LINE
5
9d
100
AcDbEntity
8
cuttingLine
6
Solid
370
35
62
5
100
AcDbLine
10
564.25
20
41.85
30
0.0
11
564.25
21
79.95
31
0.0
0
LINE
5
9f
100
AcDbEntity
8
cuttingLine
6
Solid
370
35
62
5
100
AcDbLine
10
564.25
20
79.95
30
0.0
11
561.75
21
81.2
31
0.0
0
LINE
5
a3
100
AcDbEntity
8
cuttingLine
6
Solid
370
35
62
5
100
AcDbLine
10
561.75
20
81.2
30
0.0
11
561.75
21
121.8
31
0.0
0
LINE
5
a7
100
AcDbEntity
8
cuttingLine
6
Solid
370
35
62
5
100
AcDbLine
10
561.75
20
121.8
30
0.0
11
564.25
21
123.05
31
0.0
0
LINE
5
a9
100
AcDbEntity
8
cuttingLine
6
Solid
370
35
62
5
100
AcDbLine
10
564.25
20
123.05
30
0.0
11
564.25
21
161.15
31
0.0
0
LINE
5
ab
100
AcDbEntity
8
cuttingLine
6
Solid
370
35
62
5
100
AcDbLine
10
564.25
20
161.15
30
0.0
11
561.75
21
162.4
31
0.0
0
LINE
5
af
100
AcDbEntity
8
cuttingLine
6
Solid
370
35
62
5
100
AcDbLine
10
561.75
20
162.4
30
0.0
11
561.75
21
201.5
31
0.0
0
LINE
5
b3
100
AcDbEntity
8
foldingLine
6
Solid
370
35
62
1
100
AcDbLine
10
436.5
20
0.0
30
0.0
11
436.5
21
203.0
31
0.0
0
LINE
5
b7
100
AcDbEntity
8
foldingLine
6
Solid
370
35
62
1
100
AcDbLine
10
441.0
20
1.5
30
0.0
11
441.0
21
201.5
31
0.0
0
LINE
5
bb
100
AcDbEntity
8
cuttingLine
6
Solid
370
35
62
5
100
AcDbLine
10
315.0
20
0.0
30
0.0
11
436.5
21
0.0
31
0.0
0
LINE
5
bd
100
AcDbEntity
8
cuttingLine
6
Solid
370
35
62
5
100
AcDbLine
10
436.5
20
0.0
30
0.0
11
441.0
21
1.5
31
0.0
0
LINE
5
bf
100
AcDbEntity
8
cuttingLine
6
Solid
370
35
62
5
100
AcDbLine
10
441.0
20
1.5
30
0.0
11
561.75
21
1.5
31
0.0
0
LINE
5
c3
100
AcDbEntity
8
cuttingLine
6
Solid
370
35
62
5
100
AcDbLine
10
315.0
20
203.0
30
0.0
11
436.5
21
203.0
31
0.0
0
LINE
5
c5
100
AcDbEntity
8
cuttingLine
6
Solid
370
35
62
5
100
AcDbLine
10
436.5
20
203.0
30
0.0
11
441.0
21
201.5
31
0.0
0
LINE
5
c7
100
AcDbEntity
8
cuttingLine
6
Solid
370
35
62
5
100
AcDbLine
10
441.0
20
201.5
30
0.0
11
561.75
21
201.5
31
0.0
0
LINE
5
cb
100
AcDbEntity
8
foldingLine
6
Solid
370
35
62
1
100
AcDbLine
10
3.0
20
0.75
30
0.0
11
3.0
21
-120.0
31
0.0
0
LINE
5
cf
100
AcDbEntity
8
foldingLine
6
Solid
370
35
62
1
100
AcDbLine
10
312.0
20
0.75
30
0.0
11
312.0
21
-120.0
31
0.0
0
LINE
5
d3
100
AcDbEntity
8
cuttingLine
6
Solid
370
35
62
5
100
AcDbLine
10
3.0
20
-120.0
30
0.0
11
312.0
21
-120.0
31
0.0
0
LINE
5
d7
100
AcDbEntity
8
foldingLine
6
Solid
370
35
62
1
100
AcDbLine
10
6.75
20
323.75
30
0.0
11
308.25
21
323.75
31
0.0
0
LINE
5
db
100
AcDbEntity
8
foldingLine
6
Solid
370
35
62
1
100
AcDbLine
10
1.5
20
202.25
30
0.0
11
1.5
21
323.0
31
0.0
0
LINE
5
df
100
AcDbEntity
8
foldingLine
6
Solid
370
35
62
1
100
AcDbLine
10
313.5
20
202.25
30
0.0
11
313.5
21
323.0
31
0.0
0
LINE
5
e3
100
AcDbEntity
8
cuttingLine
6
Solid
370
35
62
5
100
AcDbLine
10
6.75
20
323.75
30
0.0
11
1.5
21
323.0
31
0.0
0
LINE
5
e7
100
AcDbEntity
8
cuttingLine
6
Solid
370
35
62
5
100
AcDbLine
10
308.25
20
323.75
30
0.0
11
313.5
21
323.0
31
0.0
0
POINT
5
eb
100
AcDbEntity
8
cuttingLine
6
Solid
370
35
62
5
100
AcDbPoint
10
1.5
20
202.25
30
0.0
0
POINT
5
ef
100
AcDbEntity
8
cuttingLine
6
Solid
370
35
62
5
100
AcDbPoint
10
313.5
20
202.25
30
0.0
0
LINE
5
f3
100
AcDbEntity
8
cuttingLine
6
Solid
370
35
62
5
100
AcDbLine
10
-97.75
20
203.0
30
0.0
11
-97.75
21
204.5
31
0.0
0
POINT
5
f5
100
AcDbEntity
8
cuttingLine
6
Solid
370
35
62
5
100
AcDbPoint
10
-97.75
20
204.5
30
0.0
0
LINE
5
f7
100
AcDbEntity
8
cuttingLine
6
Solid
370
35
62
5
100
AcDbLine
10
-97.75
20
204.5
30
0.0
11
-97.75
21
323.0
31
0.0
0
LINE
5
f9
100
AcDbEntity
8
cuttingLine
6
Solid
370
35
62
5
100
AcDbLine
10
-97.75
20
323.0
30
0.0
11
1.5
21
323.0
31
0.0
0
LINE
5
fd
100
AcDbEntity
8
cuttingLine
6
Solid
370
35
62
5
100
AcDbLine
10
412.75
20
203.0
30
0.0
11
412.75
21
204.5
31
0.0
0
POINT
5
ff
100
AcDbEntity
8
cuttingLine
6
Solid
370
35
62
5
100
AcDbPoint
10
412.75
20
204.5
30
0.0
0
LINE
5
101
100
AcDbEntity
8
cuttingLine
6
Solid
370
35
62
5
100
AcDbLine
10
412.75
20
204.5
30
0.0
11
412.75
21
323.0
31
0.0
0
LINE
5
103
100
AcDbEntity
8
cuttingLine
6
Solid
370
35
62
5
100
AcDbLine
10
412.75
20
323.0
30
0.0
11
313.5
21
323.0
31
0.0
0
LINE
5
107
100
AcDbEntity
8
cuttingLine
6
Solid
370
35
62
5
100
AcDbLine
10
412.75
20
0.0
30
0.0
11
412.75
21
-1.5
31
0.0
0
POINT
5
109
100
AcDbEntity
8
cuttingLine
6
Solid
370
35
62
5
100
AcDbPoint
10
412.75
20
-1.5
30
0.0
0
LINE
5
10b
100
AcDbEntity
8
cuttingLine
6
Solid
370
35
62
5
100
AcDbLine
10
412.75
20
-1.5
30
0.0
11
412.75
21
-120.0
31
0.0
0
LINE
5
10d
100
AcDbEntity
8
cuttingLine
6
Solid
370
35
62
5
100
AcDbLine
10
412.75
20
-120.0
30
0.0
11
312.0
21
-120.0
31
0.0
0
LINE
5
111
100
AcDbEntity
8
cuttingLine
6
Solid
370
35
62
5
100
AcDbLine
10
-97.75
20
0.0
30
0.0
11
-97.75
21
-1.5
31
0.0
0
POINT
5
113
100
AcDbEntity
8
cuttingLine
6
Solid
370
35
62
5
100
AcDbPoint
10
-97.75
20
-1.5
30
0.0
0
LINE
5
115
100
AcDbEntity
8
cuttingLine
6
Solid
370
35
62
5
100
AcDbLine
10
-97.75
20
-1.5
30
0.0
11
-97.75
21
-120.0
31
0.0
0
LINE
5
117
100
AcDbEntity
8
cuttingLine
6
Solid
370
35
62
5
100
AcDbLine
10
-97.75
20
-120.0
30
0.0
11
3.0
21
-120.0
31
0.0
0
LINE
5
11b
100
AcDbEntity
8
cuttingLine
6
Solid
370
35
62
5
100
AcDbLine
10
-114.0
20
440.39998
30
0.0
11
-114.0
21
385.625
31
0.0
0
LINE
5
11f
100
AcDbEntity
8
cuttingLine
6
Solid
370
35
62
5
100
AcDbLine
10
6.75
20
325.25
30
0.0
11
-53.625
21
325.25
31
0.0
0
ARC
5
123
100
AcDbEntity
8
cuttingLine
6
Solid
370
35
62
5
100
AcDbCircle
10
-53.625
20
440.39998
30
0.0
40
60.375
100
AcDbArc
50
108.65123
51
180.0
0
ARC
5
127
100
AcDbEntity
8
cuttingLine
6
Solid
370
35
62
5
100
AcDbCircle
10
-53.625
20
385.625
30
0.0
40
60.375
100
AcDbArc
50
180.0
51
270.0
0
ARC
5
12b
100
AcDbEntity
8
cuttingLine
6
Solid
370
35
62
5
100
AcDbCircle
10
368.625
20
440.39998
30
0.0
40
60.375
100
AcDbArc
50
0.0
51
71.34877
0
ARC
5
12f
100
AcDbEntity
8
cuttingLine
6
Solid
370
35
62
5
100
AcDbCircle
10
368.625
20
385.625
30
0.0
40
60.375
100
AcDbArc
50
-90.0
51
0.0
0
LINE
5
133
100
AcDbEntity
8
cuttingLine
6
Solid
370
35
62
5
100
AcDbLine
10
429.0
20
440.39998
30
0.0
11
429.0
21
385.625
31
0.0
0
LINE
5
137
100
AcDbEntity
8
cuttingLine
6
Solid
370
35
62
5
100
AcDbLine
10
308.25
20
325.25
30
0.0
11
368.625
21
325.25
31
0.0
0
LINE
5
13b
100
AcDbEntity
8
cuttingLine
6
Solid
370
35
62
5
100
AcDbLine
10
2.25
20
648.25
30
0.0
11
312.75
21
648.25
31
0.0
0
LINE
5
13f
100
AcDbEntity
8
cuttingLine
6
Solid
370
35
62
5
100
AcDbLine
10
2.25
20
648.25
30
0.0
11
2.25
21
647.5
31
0.0
0
LINE
5
143
100
AcDbEntity
8
cuttingLine
6
Solid
370
35
62
5
100
AcDbLine
10
312.75
20
648.25
30
0.0
11
312.75
21
647.5
31
0.0
0
ARC
5
147
100
AcDbEntity
8
cuttingLine
6
Solid
370
35
62
5
100
AcDbCircle
10
2.25
20
526.75
30
0.0
40
120.75
100
AcDbArc
50
90.0
51
172.05314
0
ARC
5
14b
100
AcDbEntity
8
cuttingLine
6
Solid
370
35
62
5
100
AcDbCircle
10
-114.36921
20
543.02948
30
0.0
40
3.0
100
AcDbArc
50
172.05321
51
264.41706
0
LINE
5
14f
100
AcDbEntity
8
foldingLine
6
Solid
370
35
62
1
100
AcDbLine
10
2.25
20
647.5
30
0.0
11
2.25
21
528.61653
31
0.0
0
ARC
5
153
100
AcDbEntity
8
cuttingLine
6
Solid
370
35
62
5
100
AcDbCircle
10
312.75
20
526.75
30
0.0
40
120.75
100
AcDbArc
50
7.94686
51
90.0
0
ARC
5
157
100
AcDbEntity
8
cuttingLine
6
Solid
370
35
62
5
100
AcDbCircle
10
429.36921
20
543.02948
30
0.0
40
3.0
100
AcDbArc
50
-84.41706
51
7.94679
0
LINE
5
15b
100
AcDbEntity
8
foldingLine
6
Solid
370
35
62
1
100
AcDbLine
10
312.75
20
647.5
30
0.0
11
312.75
21
528.61653
31
0.0
0
LINE
5
15f
100
AcDbEntity
8
cuttingLine
6
Solid
370
35
62
5
100
AcDbLine
10
6.75
20
323.75
30
0.0
11
6.75
21
325.25
31
0.0
0
LINE
5
163
100
AcDbEntity
8
cuttingLine
6
Solid
370
35
62
5
100
AcDbLine
10
308.25
20
323.75
30
0.0
11
308.25
21
325.25
31
0.0
0
LINE
5
167
100
AcDbEntity
8
foldingLine
6
Solid
370
35
62
1
100
AcDbLine
10
6.75
20
325.25
30
0.0
11
6.75
21
526.75
31
0.0
0
LINE
5
16b
100
AcDbEntity
8
foldingLine
6
Solid
370
35
62
1
100
AcDbLine
10
6.75
20
526.75
30
0.0
11
308.25
21
526.75
31
0.0
0
LINE
5
16f
100
AcDbEntity
8
foldingLine
6
Solid
370
35
62
1
100
AcDbLine
10
308.25
20
526.75
30
0.0
11
308.25
21
325.25
31
0.0
0
ARC
5
173
100
AcDbEntity
8
cuttingLine
6
Solid
370
35
62
5
100
AcDbCircle
10
4.4873
20
526.12438
30
0.0
40
2.26269
100
AcDbArc
50
-71.34893
51
84.41736
0
LINE
5
177
100
AcDbEntity
8
cuttingLine
6
Solid
370
35
62
5
100
AcDbLine
10
-72.93333
20
497.60426
30
0.0
11
5.21092
21
523.98051
31
0.0
0
LINE
5
17b
100
AcDbEntity
8
cuttingLine
6
Solid
370
35
62
5
100
AcDbLine
10
-114.66107
20
540.04371
30
0.0
11
4.70741
21
528.37634
31
0.0
0
ARC
5
17f
100
AcDbEntity
8
cuttingLine
6
Solid
370
35
62
5
100
AcDbCircle
10
310.5127
20
526.12438
30
0.0
40
2.26269
100
AcDbArc
50
95.58244
51
251.34874
0
LINE
5
183
100
AcDbEntity
8
cuttingLine
6
Solid
370
35
62
5
100
AcDbLine
10
387.93333
20
497.60426
30
0.0
11
309.78908
21
523.98051
31
0.0
0
LINE
5
187
100
AcDbEntity
8
cuttingLine
6
Solid
370
35
62
5
100
AcDbLine
10
429.66107
20
540.04371
30
0.0
11
310.29259
21
528.37634
31
0.0
0
ENDSEC
0
SECTION
2
OBJECTS
0
DICTIONARY
5
17
330
0
100
AcDbDictionary
281
1
3
ACAD_GROUP
350
18
0
DICTIONARY
5
18
330
17
100
AcDbDictionary
281
1
0
ENDSEC
0
EOF
